<svg xmlns="http://www.w3.org/2000/svg" xmlns:xlink="http://www.w3.org/1999/xlink" width="794" height="552" viewBox="0 0 794 552">
  <defs>
    <filter id="Rectangle_40" x="0" y="0" width="794" height="552" filterUnits="userSpaceOnUse">
      <feOffset dy="3" input="SourceAlpha"/>
      <feGaussianBlur stdDeviation="15" result="blur"/>
      <feFlood flood-opacity="0.078"/>
      <feComposite operator="in" in2="blur"/>
      <feComposite in="SourceGraphic"/>
    </filter>
    <clipPath id="clip-path">
      <path id="Path_178" data-name="Path 178" d="M1003.1,640.1l-18.063-31.287,18.063-31.286h36.127l18.063,31.286L1039.232,640.1Z" transform="translate(-985.042 -577.531)" fill="none"/>
    </clipPath>
  </defs>
  <g id="ac" transform="translate(-893 -220)">
    <g id="Group_15" data-name="Group 15" transform="translate(938 262)">
      <g transform="matrix(1, 0, 0, 1, -45, -42)" filter="url(#Rectangle_40)">
        <rect id="Rectangle_40-2" data-name="Rectangle 40" width="704" height="462" transform="translate(45 42)" fill="#fff"/>
      </g>
    </g>
    <g id="Group_285" data-name="Group 285" transform="translate(952.151 302.566)">
      <g id="Group_85" data-name="Group 85" transform="translate(40.944 74.236)">
        <g id="Group_21" data-name="Group 21" transform="translate(155.523 8.439)">
          <path id="Path_19" data-name="Path 19" d="M488.458,364.03H470.026v-8.095h14.385V286.747h8.1v73.236A4.047,4.047,0,0,1,488.458,364.03Z" transform="translate(-470.026 -286.747)" fill="#dff2f4"/>
        </g>
        <path id="Path_20" data-name="Path 20" d="M470.026,405.046h18.432a4.04,4.04,0,0,0,3.1-1.452l-7.152-6.643H470.026Z" transform="translate(-314.503 -319.323)" fill="#dff2f4" style="mix-blend-mode: multiply;isolation: isolate"/>
        <g id="Group_84" data-name="Group 84">
          <g id="Group_22" data-name="Group 22" transform="translate(0 2.311)">
            <path id="Path_21" data-name="Path 21" d="M379.858,379.573a2.5,2.5,0,0,1-2.531,2.471H224.839a2.5,2.5,0,0,1-2.531-2.471V279.457a2.5,2.5,0,0,1,2.531-2.47H377.327a2.5,2.5,0,0,1,2.531,2.47Z" transform="translate(-222.308 -276.987)" fill="#fff"/>
          </g>
          <g id="Group_24" data-name="Group 24" transform="translate(0 2.311)" opacity="0.4" style="mix-blend-mode: multiply;isolation: isolate">
            <g id="Group_23" data-name="Group 23">
              <path id="Path_22" data-name="Path 22" d="M377.327,276.987h-8.313v95.02a2.5,2.5,0,0,1-2.531,2.47H222.308v5.1a2.5,2.5,0,0,0,2.531,2.471H377.327a2.5,2.5,0,0,0,2.531-2.471V279.457A2.5,2.5,0,0,0,377.327,276.987Z" transform="translate(-222.308 -276.987)" fill="#d2e5e4"/>
            </g>
          </g>
          <g id="Group_25" data-name="Group 25" transform="translate(3.147)">
            <circle id="Ellipse_1" data-name="Ellipse 1" cx="45.84" cy="45.84" r="45.84" transform="translate(0 89.413) rotate(-77.229)" fill="#dff2f4"/>
          </g>
          <g id="Group_26" data-name="Group 26" transform="translate(16.151 13.005)">
            <path id="Path_23" data-name="Path 23" d="M331.7,335.854a41.835,41.835,0,1,1-41.834-41.835A41.834,41.834,0,0,1,331.7,335.854Z" transform="translate(-248.034 -294.019)" fill="#454554"/>
          </g>
          <g id="Group_27" data-name="Group 27" transform="translate(50.42 47.274)">
            <path id="Path_24" data-name="Path 24" d="M317.749,356.169a7.566,7.566,0,1,1-7.565-7.566A7.565,7.565,0,0,1,317.749,356.169Z" transform="translate(-302.617 -348.603)" fill="#dff2f4"/>
          </g>
          <g id="Group_30" data-name="Group 30" transform="translate(12.146 8.999)">
            <g id="Group_28" data-name="Group 28" transform="translate(44.654)">
              <rect id="Rectangle_49" data-name="Rectangle 49" width="2.372" height="91.681" fill="#dff2f4"/>
            </g>
            <g id="Group_29" data-name="Group 29" transform="translate(0 44.655)">
              <rect id="Rectangle_50" data-name="Rectangle 50" width="91.681" height="2.372" fill="#dff2f4"/>
            </g>
          </g>
          <g id="Group_33" data-name="Group 33" transform="translate(17.489 14.341)">
            <g id="Group_31" data-name="Group 31" transform="translate(0 16.922)">
              <rect id="Rectangle_51" data-name="Rectangle 51" width="91.681" height="2.372" transform="translate(0 45.087) rotate(-29.458)" fill="#dff2f4"/>
            </g>
            <g id="Group_32" data-name="Group 32" transform="translate(16.924 0)">
              <rect id="Rectangle_52" data-name="Rectangle 52" width="2.372" height="91.681" transform="translate(0 1.166) rotate(-29.454)" fill="#dff2f4"/>
            </g>
          </g>
          <g id="Group_36" data-name="Group 36" transform="translate(17.205 14.064)">
            <g id="Group_34" data-name="Group 34" transform="translate(0 17.727)">
              <rect id="Rectangle_53" data-name="Rectangle 53" width="2.372" height="91.681" transform="translate(0 2.081) rotate(-61.308)" fill="#dff2f4"/>
            </g>
            <g id="Group_35" data-name="Group 35" transform="translate(17.722 0)">
              <rect id="Rectangle_54" data-name="Rectangle 54" width="91.681" height="2.372" transform="translate(0 80.411) rotate(-61.292)" fill="#dff2f4"/>
            </g>
          </g>
          <g id="Group_39" data-name="Group 39" transform="translate(12.444 9.296)">
            <g id="Group_37" data-name="Group 37" transform="translate(39.851 0)">
              <rect id="Rectangle_55" data-name="Rectangle 55" width="91.681" height="0.474" transform="matrix(0.119, -0.993, 0.993, 0.119, 0, 91.029)" fill="#dff2f4"/>
            </g>
            <g id="Group_38" data-name="Group 38" transform="translate(0 39.845)">
              <rect id="Rectangle_56" data-name="Rectangle 56" width="0.475" height="91.681" transform="translate(0 0.471) rotate(-83.157)" fill="#dff2f4"/>
            </g>
          </g>
          <g id="Group_42" data-name="Group 42" transform="translate(15.595 12.431)">
            <g id="Group_40" data-name="Group 40" transform="translate(0 24.524)">
              <rect id="Rectangle_57" data-name="Rectangle 57" width="91.681" height="0.474" transform="translate(0 35.331) rotate(-22.667)" fill="#dff2f4"/>
            </g>
            <g id="Group_41" data-name="Group 41" transform="translate(24.549 0)">
              <rect id="Rectangle_58" data-name="Rectangle 58" width="0.474" height="91.681" transform="matrix(0.923, -0.384, 0.384, 0.923, 0, 0.182)" fill="#dff2f4"/>
            </g>
          </g>
          <g id="Group_45" data-name="Group 45" transform="translate(20.545 17.407)">
            <g id="Group_43" data-name="Group 43" transform="translate(0 10.597)">
              <rect id="Rectangle_59" data-name="Rectangle 59" width="0.474" height="91.681" transform="matrix(0.581, -0.814, 0.814, 0.581, 0, 0.386)" fill="#dff2f4"/>
            </g>
            <g id="Group_44" data-name="Group 44" transform="translate(10.593 0)">
              <rect id="Rectangle_60" data-name="Rectangle 60" width="91.681" height="0.474" transform="matrix(0.581, -0.814, 0.814, 0.581, 0, 74.589)" fill="#dff2f4"/>
            </g>
          </g>
          <g id="Group_48" data-name="Group 48" transform="translate(13.101 9.951)">
            <g id="Group_46" data-name="Group 46" transform="translate(35.124 0)">
              <rect id="Rectangle_61" data-name="Rectangle 61" width="91.681" height="0.475" transform="matrix(0.208, -0.978, 0.978, 0.208, 0, 89.678)" fill="#dff2f4"/>
            </g>
            <g id="Group_47" data-name="Group 47" transform="translate(0 35.11)">
              <rect id="Rectangle_62" data-name="Rectangle 62" width="0.474" height="91.681" transform="translate(0 0.464) rotate(-77.98)" fill="#dff2f4"/>
            </g>
          </g>
          <g id="Group_51" data-name="Group 51" transform="translate(14.183 11.034)">
            <g id="Group_49" data-name="Group 49" transform="translate(0 29.837)">
              <rect id="Rectangle_63" data-name="Rectangle 63" width="91.681" height="0.474" transform="matrix(0.954, -0.3, 0.3, 0.954, 0, 27.484)" fill="#dff2f4"/>
            </g>
            <g id="Group_50" data-name="Group 50" transform="translate(29.843 0)">
              <rect id="Rectangle_64" data-name="Rectangle 64" width="0.475" height="91.681" transform="translate(0 0.142) rotate(-17.434)" fill="#dff2f4"/>
            </g>
          </g>
          <g id="Group_54" data-name="Group 54" transform="translate(23.084 19.945)">
            <g id="Group_52" data-name="Group 52" transform="translate(0 4.815)">
              <rect id="Rectangle_65" data-name="Rectangle 65" width="0.474" height="91.681" transform="matrix(0.652, -0.758, 0.758, 0.652, 0, 0.36)" fill="#dff2f4"/>
            </g>
            <g id="Group_53" data-name="Group 53" transform="translate(4.814)">
              <rect id="Rectangle_66" data-name="Rectangle 66" width="91.681" height="0.474" transform="matrix(0.652, -0.758, 0.758, 0.652, 0, 69.48)" fill="#dff2f4"/>
            </g>
          </g>
          <g id="Group_57" data-name="Group 57" transform="translate(14.062 10.911)">
            <g id="Group_55" data-name="Group 55" transform="translate(30.364 0)">
              <rect id="Rectangle_67" data-name="Rectangle 67" width="91.682" height="0.474" transform="translate(0 87.718) rotate(-73.091)" fill="#dff2f4"/>
            </g>
            <g id="Group_56" data-name="Group 56" transform="translate(0 30.357)">
              <rect id="Rectangle_68" data-name="Rectangle 68" width="0.475" height="91.681" transform="translate(0 0.454) rotate(-73.076)" fill="#dff2f4"/>
            </g>
          </g>
          <g id="Group_60" data-name="Group 60" transform="translate(13.181 10.04)">
            <g id="Group_58" data-name="Group 58" transform="translate(0 34.645)">
              <rect id="Rectangle_69" data-name="Rectangle 69" width="91.682" height="0.474" transform="translate(0 19.847) rotate(-12.502)" fill="#dff2f4"/>
            </g>
            <g id="Group_59" data-name="Group 59" transform="translate(34.628 0)">
              <rect id="Rectangle_70" data-name="Rectangle 70" width="0.475" height="91.681" transform="translate(0 0.103) rotate(-12.53)" fill="#dff2f4"/>
            </g>
          </g>
          <g id="Group_63" data-name="Group 63" transform="translate(25.056 21.913)">
            <g id="Group_61" data-name="Group 61" transform="translate(0.696 0)">
              <rect id="Rectangle_71" data-name="Rectangle 71" width="0.474" height="91.681" transform="translate(0 0.332) rotate(-44.385)" fill="#dff2f4"/>
            </g>
            <g id="Group_62" data-name="Group 62" transform="translate(0 0.696)">
              <rect id="Rectangle_72" data-name="Rectangle 72" width="91.681" height="0.474" transform="translate(0 64.121) rotate(-44.378)" fill="#dff2f4"/>
            </g>
          </g>
          <g id="Group_66" data-name="Group 66" transform="translate(15.433 12.296)">
            <g id="Group_64" data-name="Group 64" transform="translate(25.042)">
              <rect id="Rectangle_73" data-name="Rectangle 73" width="91.681" height="0.475" transform="translate(0 84.908) rotate(-67.838)" fill="#dff2f4"/>
            </g>
            <g id="Group_65" data-name="Group 65" transform="translate(0 25.057)">
              <rect id="Rectangle_74" data-name="Rectangle 74" width="0.475" height="91.681" transform="translate(0 0.44) rotate(-67.872)" fill="#dff2f4"/>
            </g>
          </g>
          <g id="Group_69" data-name="Group 69" transform="translate(12.492 9.343)">
            <g id="Group_67" data-name="Group 67" transform="translate(0 39.399)">
              <rect id="Rectangle_75" data-name="Rectangle 75" width="91.681" height="0.475" transform="translate(0 11.724) rotate(-7.347)" fill="#dff2f4"/>
            </g>
            <g id="Group_68" data-name="Group 68" transform="translate(39.414 0)">
              <rect id="Rectangle_76" data-name="Rectangle 76" width="0.474" height="91.681" transform="translate(0 0.06) rotate(-7.326)" fill="#dff2f4"/>
            </g>
          </g>
          <g id="Group_72" data-name="Group 72" transform="translate(22.278 19.156)">
            <g id="Group_70" data-name="Group 70" transform="translate(6.564 0)">
              <rect id="Rectangle_77" data-name="Rectangle 77" width="0.474" height="91.681" transform="matrix(0.775, -0.632, 0.632, 0.775, 0, 0.3)" fill="#dff2f4"/>
            </g>
            <g id="Group_71" data-name="Group 71" transform="translate(0 6.569)">
              <rect id="Rectangle_78" data-name="Rectangle 78" width="91.681" height="0.475" transform="translate(0 57.861) rotate(-39.132)" fill="#dff2f4"/>
            </g>
          </g>
          <g id="Group_75" data-name="Group 75" transform="translate(17.023 13.876)">
            <g id="Group_73" data-name="Group 73" transform="translate(19.963)">
              <path id="Path_25" data-name="Path 25" d="M281.642,377.334l-.423-.215L322.8,295.408l.423.215Z" transform="translate(-281.219 -295.408)" fill="#dff2f4"/>
            </g>
            <g id="Group_74" data-name="Group 74" transform="translate(0 19.963)">
              <rect id="Rectangle_79" data-name="Rectangle 79" width="0.475" height="91.681" transform="translate(0 0.423) rotate(-63.031)" fill="#dff2f4"/>
            </g>
          </g>
          <g id="Group_78" data-name="Group 78" transform="translate(12.178 9.032)">
            <g id="Group_76" data-name="Group 76" transform="translate(0 43.586)">
              <rect id="Rectangle_80" data-name="Rectangle 80" width="91.681" height="0.475" transform="translate(0 3.968) rotate(-2.48)" fill="#dff2f4"/>
            </g>
            <g id="Group_77" data-name="Group 77" transform="translate(43.583 0)">
              <rect id="Rectangle_81" data-name="Rectangle 81" width="0.474" height="91.681" transform="translate(0 0.021) rotate(-2.485)" fill="#dff2f4"/>
            </g>
          </g>
          <g id="Group_81" data-name="Group 81" transform="translate(20.016 16.854)">
            <g id="Group_79" data-name="Group 79" transform="translate(11.916 0)">
              <rect id="Rectangle_82" data-name="Rectangle 82" width="0.475" height="91.681" transform="translate(0 0.268) rotate(-34.34)" fill="#dff2f4"/>
            </g>
            <g id="Group_80" data-name="Group 80" transform="translate(0 11.91)">
              <rect id="Rectangle_83" data-name="Rectangle 83" width="91.68" height="0.475" transform="matrix(0.825, -0.565, 0.565, 0.825, 0, 51.758)" fill="#dff2f4"/>
            </g>
          </g>
          <g id="Group_82" data-name="Group 82" transform="translate(25.226 107.367)">
            <rect id="Rectangle_84" data-name="Rectangle 84" width="11.972" height="5.5" fill="#454554"/>
          </g>
          <g id="Group_83" data-name="Group 83" transform="translate(121.221 107.367)">
            <rect id="Rectangle_85" data-name="Rectangle 85" width="11.972" height="5.5" fill="#454554"/>
          </g>
        </g>
        <rect id="Rectangle_86" data-name="Rectangle 86" width="5.433" height="24.645" transform="translate(157.55 68.8)" fill="#454554"/>
      </g>
      <g id="Group_205" data-name="Group 205" transform="translate(504.155)">
        <path id="Path_26" data-name="Path 26" d="M1006.454,306.653a1.867,1.867,0,0,1-1.867,1.867h0a1.867,1.867,0,0,1-1.867-1.867v-9.36a1.867,1.867,0,0,1,1.867-1.868h0a1.868,1.868,0,0,1,1.867,1.868Z" transform="translate(-975.971 -207.302)" fill="#454554"/>
        <path id="Path_27" data-name="Path 27" d="M1157.606,306.653a1.867,1.867,0,0,1-1.867,1.867h0a1.866,1.866,0,0,1-1.867-1.867v-9.36a1.867,1.867,0,0,1,1.867-1.868h0a1.868,1.868,0,0,1,1.867,1.868Z" transform="translate(-1032.226 -207.302)" fill="#454554"/>
        <path id="Path_28" data-name="Path 28" d="M1006.454,469.534a1.867,1.867,0,0,1-1.867,1.867h0a1.866,1.866,0,0,1-1.867-1.867v-9.36a1.868,1.868,0,0,1,1.867-1.868h0a1.868,1.868,0,0,1,1.867,1.868Z" transform="translate(-975.971 -267.923)" fill="#454554"/>
        <path id="Path_29" data-name="Path 29" d="M1157.606,469.534a1.867,1.867,0,0,1-1.867,1.867h0a1.866,1.866,0,0,1-1.867-1.867v-9.36a1.867,1.867,0,0,1,1.867-1.868h0a1.868,1.868,0,0,1,1.867,1.868Z" transform="translate(-1032.226 -267.923)" fill="#454554"/>
        <g id="Group_86" data-name="Group 86" transform="translate(0 48.367)">
          <path id="Path_30" data-name="Path 30" d="M990.6,350.892h-25.62a4.863,4.863,0,0,1-4.862-4.864V236.966a4.863,4.863,0,0,1,4.862-4.864H990.6v9.727H969.84v99.336H990.6Z" transform="translate(-960.114 -232.102)" fill="#dff2f4"/>
        </g>
        <path id="Path_31" data-name="Path 31" d="M961.159,413.115a4.858,4.858,0,0,0,4.206,2.43h25.62v-9.727H970.229Z" transform="translate(-960.503 -248.388)" fill="#dff2f4" style="mix-blend-mode: multiply;isolation: isolate"/>
        <path id="Path_32" data-name="Path 32" d="M991.2,232.1h-25.62a4.85,4.85,0,0,0-3.843,1.891l8.707,7.836H990.69c.172-.255.341-.512.511-.77Z" transform="translate(-960.718 -183.735)" fill="#dff2f4" style="mix-blend-mode: multiply;isolation: isolate"/>
        <g id="Group_87" data-name="Group 87" transform="translate(23.381)">
          <path id="Path_33" data-name="Path 33" d="M1104.253,247.507a2.254,2.254,0,0,1-2.282,2.226H999.636a2.254,2.254,0,0,1-2.281-2.226V157.288a2.254,2.254,0,0,1,2.281-2.226h102.336a2.254,2.254,0,0,1,2.282,2.226Z" transform="translate(-997.355 -155.062)" fill="#fff"/>
        </g>
        <path id="Path_34" data-name="Path 34" d="M1101.972,155.062h-6.888v85.627a2.254,2.254,0,0,1-2.282,2.226H997.355v4.592a2.254,2.254,0,0,0,2.281,2.226h102.336a2.254,2.254,0,0,0,2.282-2.226V157.288A2.254,2.254,0,0,0,1101.972,155.062Z" transform="translate(-973.974 -155.062)" fill="#d2e5e4"/>
        <g id="Group_145" data-name="Group 145" transform="translate(33.25 3.755)">
          <g id="Group_88" data-name="Group 88" transform="translate(2.271 2.271)">
            <path id="Path_35" data-name="Path 35" d="M1099.31,205.97A41.309,41.309,0,1,1,1058,164.661,41.309,41.309,0,0,1,1099.31,205.97Z" transform="translate(-1016.692 -164.661)" fill="#dff2f4"/>
          </g>
          <g id="Group_89" data-name="Group 89" transform="translate(0 0)">
            <circle id="Ellipse_2" data-name="Ellipse 2" cx="37.699" cy="37.699" r="37.699" transform="translate(0 74.292) rotate(-80.173)" fill="#454554"/>
          </g>
          <g id="Group_90" data-name="Group 90" transform="translate(36.763 36.763)">
            <path id="Path_36" data-name="Path 36" d="M1085.266,226.417a6.818,6.818,0,1,1-6.818-6.818A6.818,6.818,0,0,1,1085.266,226.417Z" transform="translate(-1071.63 -219.599)" fill="#dff2f4"/>
          </g>
          <g id="Group_93" data-name="Group 93" transform="translate(2.271 2.271)">
            <g id="Group_91" data-name="Group 91" transform="translate(40.241)">
              <rect id="Rectangle_87" data-name="Rectangle 87" width="2.137" height="82.618" fill="#dff2f4"/>
            </g>
            <g id="Group_92" data-name="Group 92" transform="translate(0 40.24)">
              <rect id="Rectangle_88" data-name="Rectangle 88" width="82.618" height="2.137" fill="#dff2f4"/>
            </g>
          </g>
          <g id="Group_96" data-name="Group 96" transform="translate(7.081 7.085)">
            <g id="Group_94" data-name="Group 94" transform="translate(0 15.26)">
              <rect id="Rectangle_89" data-name="Rectangle 89" width="82.618" height="2.137" transform="translate(0 40.609) rotate(-29.441)" fill="#dff2f4"/>
            </g>
            <g id="Group_95" data-name="Group 95" transform="translate(15.256 0)">
              <rect id="Rectangle_90" data-name="Rectangle 90" width="2.137" height="82.618" transform="matrix(0.871, -0.492, 0.492, 0.871, 0, 1.051)" fill="#dff2f4"/>
            </g>
          </g>
          <g id="Group_99" data-name="Group 99" transform="translate(6.831 6.832)">
            <g id="Group_97" data-name="Group 97" transform="translate(0 15.978)">
              <rect id="Rectangle_91" data-name="Rectangle 91" width="2.137" height="82.618" transform="translate(0 1.875) rotate(-61.309)" fill="#dff2f4"/>
            </g>
            <g id="Group_98" data-name="Group 98" transform="translate(15.977 0)">
              <rect id="Rectangle_92" data-name="Rectangle 92" width="82.618" height="2.137" transform="translate(0 72.47) rotate(-61.303)" fill="#dff2f4"/>
            </g>
          </g>
          <g id="Group_102" data-name="Group 102" transform="translate(2.54 2.541)">
            <g id="Group_100" data-name="Group 100" transform="translate(35.897)">
              <rect id="Rectangle_93" data-name="Rectangle 93" width="82.618" height="0.428" transform="translate(0 82.027) rotate(-83.144)" fill="#dff2f4"/>
            </g>
            <g id="Group_101" data-name="Group 101" transform="translate(0 35.905)">
              <path id="Path_37" data-name="Path 37" d="M1099.149,232.549,1017.12,222.7l.051-.424,82.029,9.844Z" transform="translate(-1017.12 -222.28)" fill="#dff2f4"/>
            </g>
          </g>
          <g id="Group_105" data-name="Group 105" transform="translate(5.385 5.364)">
            <g id="Group_103" data-name="Group 103" transform="translate(0 22.086)">
              <rect id="Rectangle_94" data-name="Rectangle 94" width="82.618" height="0.428" transform="translate(0 31.866) rotate(-22.687)" fill="#dff2f4"/>
            </g>
            <g id="Group_104" data-name="Group 104" transform="translate(22.116 0)">
              <rect id="Rectangle_95" data-name="Rectangle 95" width="0.427" height="82.618" transform="matrix(0.923, -0.384, 0.384, 0.923, 0, 0.164)" fill="#dff2f4"/>
            </g>
          </g>
          <g id="Group_108" data-name="Group 108" transform="translate(9.84 9.842)">
            <g id="Group_106" data-name="Group 106" transform="translate(0 9.556)">
              <rect id="Rectangle_96" data-name="Rectangle 96" width="0.427" height="82.619" transform="matrix(0.581, -0.814, 0.814, 0.581, 0, 0.348)" fill="#dff2f4"/>
            </g>
            <g id="Group_107" data-name="Group 107" transform="translate(9.556)">
              <rect id="Rectangle_97" data-name="Rectangle 97" width="82.617" height="0.427" transform="translate(0 67.229) rotate(-54.462)" fill="#dff2f4"/>
            </g>
          </g>
          <g id="Group_111" data-name="Group 111" transform="translate(3.133 3.121)">
            <g id="Group_109" data-name="Group 109" transform="translate(31.689 0)">
              <rect id="Rectangle_98" data-name="Rectangle 98" width="82.618" height="0.428" transform="matrix(0.207, -0.978, 0.978, 0.207, 0, 80.829)" fill="#dff2f4"/>
            </g>
            <g id="Group_110" data-name="Group 110" transform="translate(0 31.647)">
              <rect id="Rectangle_99" data-name="Rectangle 99" width="0.428" height="82.618" transform="translate(0 0.418) rotate(-77.98)" fill="#dff2f4"/>
            </g>
          </g>
          <g id="Group_114" data-name="Group 114" transform="translate(4.122 4.105)">
            <g id="Group_112" data-name="Group 112" transform="translate(0 26.839)">
              <rect id="Rectangle_100" data-name="Rectangle 100" width="82.618" height="0.428" transform="matrix(0.954, -0.301, 0.301, 0.954, 0, 24.864)" fill="#dff2f4"/>
            </g>
            <g id="Group_113" data-name="Group 113" transform="translate(26.878 0)">
              <rect id="Rectangle_101" data-name="Rectangle 101" width="0.427" height="82.618" transform="translate(0 0.128) rotate(-17.434)" fill="#dff2f4"/>
            </g>
          </g>
          <g id="Group_117" data-name="Group 117" transform="translate(12.129 12.141)">
            <g id="Group_115" data-name="Group 115" transform="translate(0 4.333)">
              <rect id="Rectangle_102" data-name="Rectangle 102" width="0.428" height="82.618" transform="translate(0 0.324) rotate(-49.288)" fill="#dff2f4"/>
            </g>
            <g id="Group_116" data-name="Group 116" transform="translate(4.331)">
              <rect id="Rectangle_103" data-name="Rectangle 103" width="82.618" height="0.427" transform="matrix(0.653, -0.758, 0.758, 0.653, 0, 62.6)" fill="#dff2f4"/>
            </g>
          </g>
          <g id="Group_120" data-name="Group 120" transform="translate(3.999 3.994)">
            <g id="Group_118" data-name="Group 118" transform="translate(27.364)">
              <rect id="Rectangle_104" data-name="Rectangle 104" width="82.618" height="0.428" transform="translate(0 79.047) rotate(-73.093)" fill="#dff2f4"/>
            </g>
            <g id="Group_119" data-name="Group 119" transform="translate(0 27.357)">
              <path id="Path_38" data-name="Path 38" d="M1098.484,235.438l-79.04-24.05.124-.409,79.04,24.05Z" transform="translate(-1019.443 -210.979)" fill="#dff2f4"/>
            </g>
          </g>
          <g id="Group_123" data-name="Group 123" transform="translate(3.231 3.209)">
            <g id="Group_121" data-name="Group 121" transform="translate(0 31.102)">
              <rect id="Rectangle_105" data-name="Rectangle 105" width="82.618" height="0.427" transform="translate(0 18.121) rotate(-12.67)" fill="#dff2f4"/>
            </g>
            <g id="Group_122" data-name="Group 122" transform="translate(31.178)">
              <path id="Path_39" data-name="Path 39" d="M1085.807,246.9l-17.925-80.65.418-.092,17.924,80.649Z" transform="translate(-1067.882 -166.155)" fill="#dff2f4"/>
            </g>
          </g>
          <g id="Group_126" data-name="Group 126" transform="translate(13.914 13.909)">
            <g id="Group_124" data-name="Group 124" transform="translate(0.619)">
              <path id="Path_40" data-name="Path 40" d="M1094.012,242.54,1036.223,183.5l.306-.3,57.788,59.044Z" transform="translate(-1036.223 -183.197)" fill="#dff2f4"/>
            </g>
            <g id="Group_125" data-name="Group 125" transform="translate(0 0.62)">
              <rect id="Rectangle_106" data-name="Rectangle 106" width="82.617" height="0.428" transform="translate(0 57.797) rotate(-44.393)" fill="#dff2f4"/>
            </g>
          </g>
          <g id="Group_129" data-name="Group 129" transform="translate(5.233 5.234)">
            <g id="Group_127" data-name="Group 127" transform="translate(22.589)">
              <path id="Path_41" data-name="Path 41" d="M1057.786,246.073l-.4-.162,31.12-76.532.4.161Z" transform="translate(-1057.39 -169.379)" fill="#dff2f4"/>
            </g>
            <g id="Group_128" data-name="Group 128" transform="translate(0 22.589)">
              <path id="Path_42" data-name="Path 42" d="M1097.942,236.875l-76.533-31.12.162-.4,76.532,31.12Z" transform="translate(-1021.409 -205.359)" fill="#dff2f4"/>
            </g>
          </g>
          <g id="Group_132" data-name="Group 132" transform="translate(2.59 2.582)">
            <g id="Group_130" data-name="Group 130" transform="translate(0 35.458)">
              <rect id="Rectangle_107" data-name="Rectangle 107" width="82.617" height="0.428" transform="matrix(0.992, -0.129, 0.129, 0.992, 0, 10.658)" fill="#dff2f4"/>
            </g>
            <g id="Group_131" data-name="Group 131" transform="translate(35.511 0)">
              <rect id="Rectangle_108" data-name="Rectangle 108" width="0.428" height="82.617" transform="translate(0 0.055) rotate(-7.325)" fill="#dff2f4"/>
            </g>
          </g>
          <g id="Group_135" data-name="Group 135" transform="translate(11.411 11.424)">
            <g id="Group_133" data-name="Group 133" transform="translate(5.907 0)">
              <rect id="Rectangle_109" data-name="Rectangle 109" width="0.427" height="82.618" transform="translate(0 0.27) rotate(-39.18)" fill="#dff2f4"/>
            </g>
            <g id="Group_134" data-name="Group 134" transform="translate(0 5.91)">
              <rect id="Rectangle_110" data-name="Rectangle 110" width="82.617" height="0.428" transform="translate(0 52.161) rotate(-39.15)" fill="#dff2f4"/>
            </g>
          </g>
          <g id="Group_138" data-name="Group 138" transform="translate(6.666 6.655)">
            <g id="Group_136" data-name="Group 136" transform="translate(18.012)">
              <rect id="Rectangle_111" data-name="Rectangle 111" width="82.618" height="0.427" transform="matrix(0.453, -0.892, 0.892, 0.453, 0, 73.657)" fill="#dff2f4"/>
            </g>
            <g id="Group_137" data-name="Group 137" transform="translate(0 18.001)">
              <rect id="Rectangle_112" data-name="Rectangle 112" width="0.427" height="82.618" transform="translate(0 0.381) rotate(-63.031)" fill="#dff2f4"/>
            </g>
          </g>
          <g id="Group_141" data-name="Group 141" transform="translate(2.301 2.301)">
            <g id="Group_139" data-name="Group 139" transform="translate(0 39.274)">
              <path id="Path_43" data-name="Path 43" d="M1016.759,231.275l-.019-.427,82.54-3.582.018.427Z" transform="translate(-1016.74 -227.265)" fill="#dff2f4"/>
            </g>
            <g id="Group_140" data-name="Group 140" transform="translate(39.274 0)">
              <rect id="Rectangle_113" data-name="Rectangle 113" width="0.428" height="82.617" transform="translate(0 0.019) rotate(-2.486)" fill="#dff2f4"/>
            </g>
          </g>
          <g id="Group_144" data-name="Group 144" transform="translate(9.325 9.35)">
            <g id="Group_142" data-name="Group 142" transform="translate(10.777 0)">
              <rect id="Rectangle_114" data-name="Rectangle 114" width="0.427" height="82.618" transform="matrix(0.826, -0.564, 0.564, 0.826, 0, 0.241)" fill="#dff2f4"/>
            </g>
            <g id="Group_143" data-name="Group 143" transform="translate(0 10.789)">
              <rect id="Rectangle_115" data-name="Rectangle 115" width="82.617" height="0.428" transform="translate(0 46.528) rotate(-34.276)" fill="#dff2f4"/>
            </g>
          </g>
        </g>
        <g id="Group_146" data-name="Group 146" transform="translate(23.381 100.259)">
          <path id="Path_44" data-name="Path 44" d="M1104.253,407.2a2.254,2.254,0,0,1-2.282,2.227H999.636a2.254,2.254,0,0,1-2.281-2.227V316.981a2.254,2.254,0,0,1,2.281-2.226h102.336a2.254,2.254,0,0,1,2.282,2.226Z" transform="translate(-997.355 -314.755)" fill="#fff"/>
        </g>
        <path id="Path_45" data-name="Path 45" d="M1101.972,314.755h-6.888v87.309a2.255,2.255,0,0,1-2.282,2.227H997.355V407.2a2.254,2.254,0,0,0,2.281,2.227h102.336a2.254,2.254,0,0,0,2.282-2.227V316.981A2.254,2.254,0,0,0,1101.972,314.755Z" transform="translate(-973.974 -214.496)" fill="#d2e5e4"/>
        <g id="Group_204" data-name="Group 204" transform="translate(35.521 106.285)">
          <g id="Group_147" data-name="Group 147">
            <path id="Path_46" data-name="Path 46" d="M1099.31,365.663A41.309,41.309,0,1,1,1058,324.354,41.309,41.309,0,0,1,1099.31,365.663Z" transform="translate(-1016.692 -324.354)" fill="#dff2f4"/>
          </g>
          <g id="Group_148" data-name="Group 148" transform="translate(0.961 0.96)">
            <circle id="Ellipse_3" data-name="Ellipse 3" cx="37.699" cy="37.699" r="37.699" transform="matrix(0.073, -0.997, 0.997, 0.073, 0, 75.197)" fill="#454554"/>
          </g>
          <g id="Group_149" data-name="Group 149" transform="translate(34.491 34.491)">
            <path id="Path_47" data-name="Path 47" d="M1085.266,386.11a6.818,6.818,0,1,1-6.818-6.818A6.818,6.818,0,0,1,1085.266,386.11Z" transform="translate(-1071.63 -379.292)" fill="#dff2f4"/>
          </g>
          <g id="Group_152" data-name="Group 152" transform="translate(0)">
            <g id="Group_150" data-name="Group 150" transform="translate(40.241)">
              <rect id="Rectangle_116" data-name="Rectangle 116" width="2.137" height="82.617" fill="#dff2f4"/>
            </g>
            <g id="Group_151" data-name="Group 151" transform="translate(0 40.24)">
              <rect id="Rectangle_117" data-name="Rectangle 117" width="82.618" height="2.138" fill="#dff2f4"/>
            </g>
          </g>
          <g id="Group_155" data-name="Group 155" transform="translate(4.809 4.814)">
            <g id="Group_153" data-name="Group 153" transform="translate(0 15.26)">
              <rect id="Rectangle_118" data-name="Rectangle 118" width="82.618" height="2.137" transform="matrix(0.871, -0.492, 0.492, 0.871, 0, 40.608)" fill="#dff2f4"/>
            </g>
            <g id="Group_154" data-name="Group 154" transform="translate(15.257 0)">
              <rect id="Rectangle_119" data-name="Rectangle 119" width="2.137" height="82.617" transform="translate(0 1.051) rotate(-29.454)" fill="#dff2f4"/>
            </g>
          </g>
          <g id="Group_158" data-name="Group 158" transform="translate(4.559 4.558)">
            <g id="Group_156" data-name="Group 156" transform="translate(0 15.981)">
              <rect id="Rectangle_120" data-name="Rectangle 120" width="2.137" height="82.618" transform="matrix(0.48, -0.877, 0.877, 0.48, 0, 1.875)" fill="#dff2f4"/>
            </g>
            <g id="Group_157" data-name="Group 157" transform="translate(15.982 0)">
              <rect id="Rectangle_121" data-name="Rectangle 121" width="82.617" height="2.137" transform="matrix(0.48, -0.877, 0.877, 0.48, 0, 72.476)" fill="#dff2f4"/>
            </g>
          </g>
          <g id="Group_161" data-name="Group 161" transform="translate(0.269 0.267)">
            <g id="Group_159" data-name="Group 159" transform="translate(35.921)">
              <rect id="Rectangle_122" data-name="Rectangle 122" width="82.617" height="0.428" transform="matrix(0.119, -0.993, 0.993, 0.119, 0, 82.032)" fill="#dff2f4"/>
            </g>
            <g id="Group_160" data-name="Group 160" transform="translate(0 35.908)">
              <path id="Path_48" data-name="Path 48" d="M1099.149,392.242,1017.12,382.4l.051-.424,82.029,9.844Z" transform="translate(-1017.12 -381.973)" fill="#dff2f4"/>
            </g>
          </g>
          <g id="Group_164" data-name="Group 164" transform="translate(3.114 3.093)">
            <g id="Group_162" data-name="Group 162" transform="translate(0 22.086)">
              <rect id="Rectangle_123" data-name="Rectangle 123" width="82.618" height="0.428" transform="translate(0 31.866) rotate(-22.687)" fill="#dff2f4"/>
            </g>
            <g id="Group_163" data-name="Group 163" transform="translate(22.116 0)">
              <rect id="Rectangle_124" data-name="Rectangle 124" width="0.427" height="82.617" transform="translate(0 0.164) rotate(-22.611)" fill="#dff2f4"/>
            </g>
          </g>
          <g id="Group_167" data-name="Group 167" transform="translate(7.569 7.569)">
            <g id="Group_165" data-name="Group 165" transform="translate(0 9.557)">
              <rect id="Rectangle_125" data-name="Rectangle 125" width="0.427" height="82.618" transform="matrix(0.581, -0.814, 0.814, 0.581, 0, 0.348)" fill="#dff2f4"/>
            </g>
            <g id="Group_166" data-name="Group 166" transform="translate(9.558)">
              <path id="Path_49" data-name="Path 49" d="M1044.319,403.889l-.348-.247,48.017-67.231.347.249Z" transform="translate(-1043.972 -336.41)" fill="#dff2f4"/>
            </g>
          </g>
          <g id="Group_170" data-name="Group 170" transform="translate(0.862 0.85)">
            <g id="Group_168" data-name="Group 168" transform="translate(31.689)">
              <rect id="Rectangle_126" data-name="Rectangle 126" width="82.617" height="0.428" transform="matrix(0.207, -0.978, 0.978, 0.207, 0, 80.828)" fill="#dff2f4"/>
            </g>
            <g id="Group_169" data-name="Group 169" transform="translate(0 31.647)">
              <rect id="Rectangle_127" data-name="Rectangle 127" width="0.428" height="82.618" transform="translate(0 0.418) rotate(-77.98)" fill="#dff2f4"/>
            </g>
          </g>
          <g id="Group_173" data-name="Group 173" transform="translate(1.848 1.833)">
            <g id="Group_171" data-name="Group 171" transform="translate(0 26.848)">
              <rect id="Rectangle_128" data-name="Rectangle 128" width="82.618" height="0.428" transform="translate(0 24.847) rotate(-17.502)" fill="#dff2f4"/>
            </g>
            <g id="Group_172" data-name="Group 172" transform="translate(26.881 0)">
              <rect id="Rectangle_129" data-name="Rectangle 129" width="0.427" height="82.618" transform="translate(0 0.128) rotate(-17.434)" fill="#dff2f4"/>
            </g>
          </g>
          <g id="Group_176" data-name="Group 176" transform="translate(9.858 9.888)">
            <g id="Group_174" data-name="Group 174" transform="translate(0 4.315)">
              <rect id="Rectangle_130" data-name="Rectangle 130" width="0.428" height="82.618" transform="translate(0 0.324) rotate(-49.288)" fill="#dff2f4"/>
            </g>
            <g id="Group_175" data-name="Group 175" transform="translate(4.311)">
              <rect id="Rectangle_131" data-name="Rectangle 131" width="82.617" height="0.427" transform="translate(0 62.563) rotate(-49.224)" fill="#dff2f4"/>
            </g>
          </g>
          <g id="Group_179" data-name="Group 179" transform="translate(1.727 1.715)">
            <g id="Group_177" data-name="Group 177" transform="translate(27.392)">
              <rect id="Rectangle_132" data-name="Rectangle 132" width="82.618" height="0.428" transform="matrix(0.29, -0.957, 0.957, 0.29, 0, 79.064)" fill="#dff2f4"/>
            </g>
            <g id="Group_178" data-name="Group 178" transform="translate(0 27.365)">
              <path id="Path_50" data-name="Path 50" d="M1098.484,395.131l-79.04-24.05.124-.409,79.04,24.05Z" transform="translate(-1019.443 -370.672)" fill="#dff2f4"/>
            </g>
          </g>
          <g id="Group_182" data-name="Group 182" transform="translate(0.96 0.938)">
            <g id="Group_180" data-name="Group 180" transform="translate(0 31.102)">
              <rect id="Rectangle_133" data-name="Rectangle 133" width="82.618" height="0.428" transform="translate(0 18.121) rotate(-12.67)" fill="#dff2f4"/>
            </g>
            <g id="Group_181" data-name="Group 181" transform="translate(31.178 0)">
              <rect id="Rectangle_134" data-name="Rectangle 134" width="0.428" height="82.617" transform="translate(0 0.093) rotate(-12.531)" fill="#dff2f4"/>
            </g>
          </g>
          <g id="Group_185" data-name="Group 185" transform="translate(11.643 11.637)">
            <g id="Group_183" data-name="Group 183" transform="translate(0.619 0)">
              <rect id="Rectangle_135" data-name="Rectangle 135" width="0.428" height="82.617" transform="translate(0 0.299) rotate(-44.385)" fill="#dff2f4"/>
            </g>
            <g id="Group_184" data-name="Group 184" transform="translate(0 0.62)">
              <rect id="Rectangle_136" data-name="Rectangle 136" width="82.617" height="0.428" transform="translate(0 57.797) rotate(-44.393)" fill="#dff2f4"/>
            </g>
          </g>
          <g id="Group_188" data-name="Group 188" transform="translate(2.962 2.98)">
            <g id="Group_186" data-name="Group 186" transform="translate(22.545)">
              <rect id="Rectangle_137" data-name="Rectangle 137" width="82.618" height="0.428" transform="translate(0 76.496) rotate(-67.805)" fill="#dff2f4"/>
            </g>
            <g id="Group_187" data-name="Group 187" transform="translate(0 22.571)">
              <path id="Path_51" data-name="Path 51" d="M1097.942,396.568l-76.533-31.12.162-.4,76.532,31.12Z" transform="translate(-1021.409 -365.051)" fill="#dff2f4"/>
            </g>
          </g>
          <g id="Group_191" data-name="Group 191" transform="translate(0.319 0.31)">
            <g id="Group_189" data-name="Group 189" transform="translate(0 35.455)">
              <rect id="Rectangle_138" data-name="Rectangle 138" width="82.617" height="0.428" transform="matrix(0.992, -0.129, 0.129, 0.992, 0, 10.664)" fill="#dff2f4"/>
            </g>
            <g id="Group_190" data-name="Group 190" transform="translate(35.511 0)">
              <rect id="Rectangle_139" data-name="Rectangle 139" width="0.428" height="82.617" transform="translate(0 0.055) rotate(-7.325)" fill="#dff2f4"/>
            </g>
          </g>
          <g id="Group_194" data-name="Group 194" transform="translate(9.14 9.153)">
            <g id="Group_192" data-name="Group 192" transform="translate(5.907 0)">
              <rect id="Rectangle_140" data-name="Rectangle 140" width="0.427" height="82.617" transform="translate(0 0.27) rotate(-39.18)" fill="#dff2f4"/>
            </g>
            <g id="Group_193" data-name="Group 193" transform="translate(0 5.909)">
              <rect id="Rectangle_141" data-name="Rectangle 141" width="82.617" height="0.428" transform="translate(0 52.161) rotate(-39.15)" fill="#dff2f4"/>
            </g>
          </g>
          <g id="Group_197" data-name="Group 197" transform="translate(4.395 4.384)">
            <g id="Group_195" data-name="Group 195" transform="translate(18.013)">
              <rect id="Rectangle_142" data-name="Rectangle 142" width="82.618" height="0.428" transform="matrix(0.453, -0.892, 0.892, 0.453, 0, 73.656)" fill="#dff2f4"/>
            </g>
            <g id="Group_196" data-name="Group 196" transform="translate(0 18.001)">
              <rect id="Rectangle_143" data-name="Rectangle 143" width="0.428" height="82.618" transform="matrix(0.453, -0.891, 0.891, 0.453, 0, 0.381)" fill="#dff2f4"/>
            </g>
          </g>
          <g id="Group_200" data-name="Group 200" transform="translate(0.03 0.03)">
            <g id="Group_198" data-name="Group 198" transform="translate(0 39.274)">
              <path id="Path_52" data-name="Path 52" d="M1016.759,390.967l-.019-.426,82.54-3.583.018.427Z" transform="translate(-1016.74 -386.958)" fill="#dff2f4"/>
            </g>
            <g id="Group_199" data-name="Group 199" transform="translate(39.274)">
              <path id="Path_53" data-name="Path 53" d="M1082.879,406.96l-3.583-82.54.427-.018,3.583,82.539Z" transform="translate(-1079.296 -324.402)" fill="#dff2f4"/>
            </g>
          </g>
          <g id="Group_203" data-name="Group 203" transform="translate(7.08 7.079)">
            <g id="Group_201" data-name="Group 201" transform="translate(10.751 0)">
              <rect id="Rectangle_144" data-name="Rectangle 144" width="0.428" height="82.618" transform="translate(0 0.241) rotate(-34.339)" fill="#dff2f4"/>
            </g>
            <g id="Group_202" data-name="Group 202" transform="translate(0 10.751)">
              <path id="Path_54" data-name="Path 54" d="M1028.21,399.712l-.241-.354,68.218-46.6.241.353Z" transform="translate(-1027.969 -352.753)" fill="#dff2f4"/>
            </g>
          </g>
        </g>
        <path id="Path_55" data-name="Path 55" d="M981.2,415.609a.523.523,0,0,1-.522.522h0a.521.521,0,0,1-.521-.522v-10.9a.521.521,0,0,1,.521-.522h0a.523.523,0,0,1,.522.522Z" transform="translate(-967.573 -247.78)" fill="#dff2f4"/>
        <path id="Path_56" data-name="Path 56" d="M983.771,415.609a.522.522,0,0,1-.521.522h0a.523.523,0,0,1-.522-.522v-10.9a.523.523,0,0,1,.522-.522h0a.522.522,0,0,1,.521.522Z" transform="translate(-968.53 -247.78)" fill="#dff2f4"/>
        <path id="Path_57" data-name="Path 57" d="M981.2,241.759a.522.522,0,0,1-.522.521h0a.52.52,0,0,1-.521-.521v-10.9a.52.52,0,0,1,.521-.521h0a.522.522,0,0,1,.522.521Z" transform="translate(-967.573 -183.078)" fill="#dff2f4"/>
        <path id="Path_58" data-name="Path 58" d="M983.771,241.759a.521.521,0,0,1-.521.521h0a.522.522,0,0,1-.522-.521v-10.9a.522.522,0,0,1,.522-.521h0a.521.521,0,0,1,.521.521Z" transform="translate(-968.53 -183.078)" fill="#dff2f4"/>
      </g>
      <path id="Path_59" data-name="Path 59" d="M165.082,683.318H403.866l41.419,29.931H201.51Z" transform="translate(-160.066 -351.667)" fill="#9397ca" opacity="0.4" style="mix-blend-mode: multiply;isolation: isolate"/>
      <path id="Path_60" data-name="Path 60" d="M624.857,713.887h176.36l40.435,29.931H660.419Z" transform="translate(-331.184 -363.044)" fill="#9397ca" opacity="0.4" style="mix-blend-mode: multiply;isolation: isolate"/>
      <path id="Path_61" data-name="Path 61" d="M973.933,709.768h127.2l49.585,29.931H1010.36Z" transform="translate(-461.102 -361.511)" fill="#9397ca" opacity="0.4" style="mix-blend-mode: multiply;isolation: isolate"/>
      <g id="Group_210" data-name="Group 210" transform="translate(292.956 45.311)">
        <g id="Group_206" data-name="Group 206" transform="translate(107.271 9.012)">
          <path id="Path_62" data-name="Path 62" d="M794.577,348.97v-2.933H815.3c.753-.022,7.657-.492,7.657-9.866V241.588h2.932v94.583c0,12.464-10.458,12.8-10.563,12.8Z" transform="translate(-794.577 -241.588)" fill="#dff2f4"/>
        </g>
        <g id="Group_207" data-name="Group 207" transform="translate(114.039 15.529)">
          <path id="Path_63" data-name="Path 63" d="M814.656,363.118c-.6,0-1.035-.025-1.2-.037h-8.1v-2.933l8.275.006c1.5.119,5.832.036,7.779-1.762a3.044,3.044,0,0,0,1-2.394V251.968h2.932V356a6.025,6.025,0,0,1-1.944,4.554C820.943,362.811,816.751,363.118,814.656,363.118Z" transform="translate(-805.357 -251.968)" fill="#dff2f4"/>
        </g>
        <path id="Path_64" data-name="Path 64" d="M645.741,259.109l32.039-11.825h36.9L747.5,259.109Z" transform="translate(-631.912 -234.696)" fill="#fff"/>
        <g id="Group_208" data-name="Group 208" transform="translate(10.735 24.413)">
          <path id="Path_65" data-name="Path 65" d="M748.249,376.657a2.265,2.265,0,0,1-2.293,2.237H643.106a2.265,2.265,0,0,1-2.292-2.237v-108.3a2.265,2.265,0,0,1,2.292-2.238h102.85a2.265,2.265,0,0,1,2.293,2.238Z" transform="translate(-640.814 -266.119)" fill="#fff"/>
        </g>
        <g id="Group_209" data-name="Group 209" transform="translate(14.276 27.504)">
          <path id="Path_66" data-name="Path 66" d="M648.071,376.917a.82.82,0,0,1-.809.83h0a.819.819,0,0,1-.809-.83V271.872a.819.819,0,0,1,.809-.83h0a.82.82,0,0,1,.809.83Z" transform="translate(-646.454 -271.042)" fill="#454554"/>
          <path id="Path_67" data-name="Path 67" d="M653.463,376.917a.821.821,0,0,1-.809.83h0a.82.82,0,0,1-.809-.83V271.872a.82.82,0,0,1,.809-.83h0a.821.821,0,0,1,.809.83Z" transform="translate(-648.46 -271.042)" fill="#454554"/>
          <path id="Path_68" data-name="Path 68" d="M658.852,376.917a.819.819,0,0,1-.809.83h0a.819.819,0,0,1-.809-.83V271.872a.819.819,0,0,1,.809-.83h0a.819.819,0,0,1,.809.83Z" transform="translate(-650.466 -271.042)" fill="#454554"/>
          <path id="Path_69" data-name="Path 69" d="M664.243,376.917a.82.82,0,0,1-.809.83h0a.82.82,0,0,1-.81-.83V271.872a.82.82,0,0,1,.81-.83h0a.82.82,0,0,1,.809.83Z" transform="translate(-652.472 -271.042)" fill="#454554"/>
          <path id="Path_70" data-name="Path 70" d="M669.634,376.917a.819.819,0,0,1-.809.83h0a.82.82,0,0,1-.809-.83V271.872a.82.82,0,0,1,.809-.83h0a.819.819,0,0,1,.809.83Z" transform="translate(-654.479 -271.042)" fill="#454554"/>
          <path id="Path_71" data-name="Path 71" d="M675.025,376.917a.82.82,0,0,1-.809.83h0a.82.82,0,0,1-.81-.83V271.872a.82.82,0,0,1,.81-.83h0a.82.82,0,0,1,.809.83Z" transform="translate(-656.485 -271.042)" fill="#454554"/>
          <path id="Path_72" data-name="Path 72" d="M680.415,376.917a.82.82,0,0,1-.809.83h0a.819.819,0,0,1-.809-.83V271.872a.819.819,0,0,1,.809-.83h0a.82.82,0,0,1,.809.83Z" transform="translate(-658.491 -271.042)" fill="#454554"/>
          <path id="Path_73" data-name="Path 73" d="M685.806,376.917a.82.82,0,0,1-.809.83h0a.82.82,0,0,1-.809-.83V271.872a.82.82,0,0,1,.809-.83h0a.82.82,0,0,1,.809.83Z" transform="translate(-660.497 -271.042)" fill="#454554"/>
          <path id="Path_74" data-name="Path 74" d="M691.2,376.917a.82.82,0,0,1-.809.83h0a.819.819,0,0,1-.809-.83V271.872a.819.819,0,0,1,.809-.83h0a.82.82,0,0,1,.809.83Z" transform="translate(-662.504 -271.042)" fill="#454554"/>
          <path id="Path_75" data-name="Path 75" d="M696.586,376.917a.819.819,0,0,1-.809.83h0a.82.82,0,0,1-.809-.83V271.872a.82.82,0,0,1,.809-.83h0a.819.819,0,0,1,.809.83Z" transform="translate(-664.51 -271.042)" fill="#454554"/>
          <path id="Path_76" data-name="Path 76" d="M701.977,376.917a.819.819,0,0,1-.809.83h0a.82.82,0,0,1-.809-.83V271.872a.82.82,0,0,1,.809-.83h0a.819.819,0,0,1,.809.83Z" transform="translate(-666.516 -271.042)" fill="#454554"/>
          <path id="Path_77" data-name="Path 77" d="M707.369,376.917a.82.82,0,0,1-.809.83h0a.82.82,0,0,1-.809-.83V271.872a.82.82,0,0,1,.809-.83h0a.82.82,0,0,1,.809.83Z" transform="translate(-668.523 -271.042)" fill="#454554"/>
          <path id="Path_78" data-name="Path 78" d="M712.759,376.917a.82.82,0,0,1-.808.83h0a.82.82,0,0,1-.81-.83V271.872a.82.82,0,0,1,.81-.83h0a.82.82,0,0,1,.808.83Z" transform="translate(-670.529 -271.042)" fill="#454554"/>
          <path id="Path_79" data-name="Path 79" d="M718.149,376.917a.82.82,0,0,1-.809.83h0a.82.82,0,0,1-.809-.83V271.872a.82.82,0,0,1,.809-.83h0a.82.82,0,0,1,.809.83Z" transform="translate(-672.535 -271.042)" fill="#454554"/>
          <path id="Path_80" data-name="Path 80" d="M723.54,376.917a.819.819,0,0,1-.809.83h0a.82.82,0,0,1-.81-.83V271.872a.82.82,0,0,1,.81-.83h0a.819.819,0,0,1,.809.83Z" transform="translate(-674.541 -271.042)" fill="#454554"/>
          <path id="Path_81" data-name="Path 81" d="M728.931,376.917a.82.82,0,0,1-.809.83h0a.82.82,0,0,1-.809-.83V271.872a.82.82,0,0,1,.809-.83h0a.82.82,0,0,1,.809.83Z" transform="translate(-676.547 -271.042)" fill="#454554"/>
          <path id="Path_82" data-name="Path 82" d="M734.321,376.917a.82.82,0,0,1-.809.83h0a.82.82,0,0,1-.809-.83V271.872a.82.82,0,0,1,.809-.83h0a.82.82,0,0,1,.809.83Z" transform="translate(-678.554 -271.042)" fill="#454554"/>
          <path id="Path_83" data-name="Path 83" d="M739.712,376.917a.82.82,0,0,1-.809.83h0a.82.82,0,0,1-.809-.83V271.872a.82.82,0,0,1,.809-.83h0a.82.82,0,0,1,.809.83Z" transform="translate(-680.56 -271.042)" fill="#454554"/>
          <path id="Path_84" data-name="Path 84" d="M745.1,376.917a.82.82,0,0,1-.809.83h0a.82.82,0,0,1-.81-.83V271.872a.82.82,0,0,1,.81-.83h0a.82.82,0,0,1,.809.83Z" transform="translate(-682.566 -271.042)" fill="#454554"/>
          <path id="Path_85" data-name="Path 85" d="M750.493,376.917a.82.82,0,0,1-.809.83h0a.819.819,0,0,1-.809-.83V271.872a.819.819,0,0,1,.809-.83h0a.82.82,0,0,1,.809.83Z" transform="translate(-684.573 -271.042)" fill="#454554"/>
          <path id="Path_86" data-name="Path 86" d="M755.885,376.917a.82.82,0,0,1-.81.83h0a.819.819,0,0,1-.809-.83V271.872a.819.819,0,0,1,.809-.83h0a.82.82,0,0,1,.81.83Z" transform="translate(-686.579 -271.042)" fill="#454554"/>
          <path id="Path_87" data-name="Path 87" d="M761.274,376.917a.82.82,0,0,1-.809.83h0a.82.82,0,0,1-.809-.83V271.872a.82.82,0,0,1,.809-.83h0a.82.82,0,0,1,.809.83Z" transform="translate(-688.585 -271.042)" fill="#454554"/>
          <path id="Path_88" data-name="Path 88" d="M766.665,376.917a.82.82,0,0,1-.809.83h0a.82.82,0,0,1-.809-.83V271.872a.82.82,0,0,1,.809-.83h0a.82.82,0,0,1,.809.83Z" transform="translate(-690.591 -271.042)" fill="#454554"/>
          <path id="Path_89" data-name="Path 89" d="M772.055,376.917a.82.82,0,0,1-.808.83h0a.82.82,0,0,1-.81-.83V271.872a.82.82,0,0,1,.81-.83h0a.82.82,0,0,1,.808.83Z" transform="translate(-692.598 -271.042)" fill="#454554"/>
          <path id="Path_90" data-name="Path 90" d="M777.446,376.917a.82.82,0,0,1-.809.83h0a.82.82,0,0,1-.809-.83V271.872a.82.82,0,0,1,.809-.83h0a.82.82,0,0,1,.809.83Z" transform="translate(-694.604 -271.042)" fill="#454554"/>
          <path id="Path_91" data-name="Path 91" d="M782.836,376.917a.819.819,0,0,1-.809.83h0a.819.819,0,0,1-.809-.83V271.872a.819.819,0,0,1,.809-.83h0a.819.819,0,0,1,.809.83Z" transform="translate(-696.61 -271.042)" fill="#454554"/>
          <path id="Path_92" data-name="Path 92" d="M788.227,376.917a.82.82,0,0,1-.809.83h0a.82.82,0,0,1-.809-.83V271.872a.82.82,0,0,1,.809-.83h0a.82.82,0,0,1,.809.83Z" transform="translate(-698.616 -271.042)" fill="#454554"/>
          <path id="Path_93" data-name="Path 93" d="M793.618,376.917a.82.82,0,0,1-.809.83h0a.819.819,0,0,1-.808-.83V271.872a.819.819,0,0,1,.808-.83h0a.82.82,0,0,1,.809.83Z" transform="translate(-700.623 -271.042)" fill="#454554"/>
          <path id="Path_94" data-name="Path 94" d="M799.009,376.917a.82.82,0,0,1-.81.83h0a.82.82,0,0,1-.809-.83V271.872a.82.82,0,0,1,.809-.83h0a.82.82,0,0,1,.81.83Z" transform="translate(-702.629 -271.042)" fill="#454554"/>
          <path id="Path_95" data-name="Path 95" d="M804.4,376.917a.819.819,0,0,1-.809.83h0a.82.82,0,0,1-.809-.83V271.872a.82.82,0,0,1,.809-.83h0a.819.819,0,0,1,.809.83Z" transform="translate(-704.635 -271.042)" fill="#454554"/>
        </g>
        <rect id="Rectangle_145" data-name="Rectangle 145" width="104.107" height="1.308" transform="translate(12.647 33.579)" fill="#fff"/>
        <rect id="Rectangle_146" data-name="Rectangle 146" width="104.107" height="1.308" transform="translate(12.647 47.028)" fill="#fff"/>
        <rect id="Rectangle_147" data-name="Rectangle 147" width="104.107" height="1.308" transform="translate(12.647 60.477)" fill="#fff"/>
        <rect id="Rectangle_148" data-name="Rectangle 148" width="104.107" height="1.309" transform="translate(12.647 73.926)" fill="#fff"/>
        <rect id="Rectangle_149" data-name="Rectangle 149" width="104.107" height="1.308" transform="translate(12.647 87.375)" fill="#fff"/>
        <rect id="Rectangle_150" data-name="Rectangle 150" width="104.107" height="1.309" transform="translate(12.647 100.824)" fill="#fff"/>
        <rect id="Rectangle_151" data-name="Rectangle 151" width="104.107" height="1.309" transform="translate(12.647 114.273)" fill="#fff"/>
        <rect id="Rectangle_152" data-name="Rectangle 152" width="104.107" height="1.309" transform="translate(12.647 127.722)" fill="#fff"/>
        <path id="Path_96" data-name="Path 96" d="M666.891,447.62a1.87,1.87,0,0,1-1.871,1.871H652.966a1.871,1.871,0,0,1-1.872-1.871h0a1.872,1.872,0,0,1,1.872-1.872H665.02a1.871,1.871,0,0,1,1.871,1.872Z" transform="translate(-633.905 -308.559)" fill="#454554"/>
        <path id="Path_97" data-name="Path 97" d="M792.4,447.62a1.871,1.871,0,0,1-1.872,1.871H778.477a1.871,1.871,0,0,1-1.872-1.871h0a1.872,1.872,0,0,1,1.872-1.872h12.054a1.872,1.872,0,0,1,1.872,1.872Z" transform="translate(-680.617 -308.559)" fill="#454554"/>
        <path id="Rectangle_153" data-name="Rectangle 153" d="M5.722,0H123.679A5.721,5.721,0,0,1,129.4,5.721v0a5.721,5.721,0,0,1-5.721,5.721H5.722A5.722,5.722,0,0,1,0,5.722v0A5.722,5.722,0,0,1,5.722,0Z" transform="translate(0 140.431)" fill="#dff2f4"/>
        <rect id="Rectangle_154" data-name="Rectangle 154" width="20.988" height="25.176" rx="7.785" transform="translate(123.298)" fill="#dff2f4"/>
      </g>
      <g id="Group_215" data-name="Group 215" transform="translate(286.56 255.891)">
        <path id="Path_98" data-name="Path 98" d="M713.908,703.431h-.088l-86.176,1.058S629.339,710,636.751,710H790.978c7.412,0,9.107-5.506,9.107-5.506Z" transform="translate(-618.781 -615.043)" fill="#454554"/>
        <path id="Rectangle_155" data-name="Rectangle 155" d="M7.553,0H182.7a7.554,7.554,0,0,1,7.554,7.554v75.7a7.553,7.553,0,0,1-7.553,7.553H7.554A7.554,7.554,0,0,1,0,83.255V7.553A7.553,7.553,0,0,1,7.553,0Z" transform="translate(0 0)" fill="#fff"/>
        <path id="Path_99" data-name="Path 99" d="M799.039,562.647h-5.368v75.368a4.743,4.743,0,0,1-4.742,4.742h-175.4v5.957a4.742,4.742,0,0,0,4.742,4.742H799.039a4.742,4.742,0,0,0,4.742-4.742V567.388A4.741,4.741,0,0,0,799.039,562.647Z" transform="translate(-613.528 -562.647)" fill="#d2e5e4"/>
        <g id="Group_211" data-name="Group 211" transform="translate(14.12 34.706)">
          <path id="Path_100" data-name="Path 100" d="M673.428,618.853a.926.926,0,0,1-.927.926H636.945a.926.926,0,0,1-.927-.926h0a.926.926,0,0,1,.927-.927H672.5a.926.926,0,0,1,.927.927Z" transform="translate(-636.018 -617.926)" fill="#5b5b6d"/>
          <path id="Path_101" data-name="Path 101" d="M673.428,624.872a.926.926,0,0,1-.927.926H636.945a.927.927,0,0,1-.927-.926h0a.927.927,0,0,1,.927-.927H672.5a.926.926,0,0,1,.927.927Z" transform="translate(-636.018 -620.166)" fill="#5b5b6d"/>
          <path id="Path_102" data-name="Path 102" d="M673.428,630.89a.926.926,0,0,1-.927.927H636.945a.926.926,0,0,1-.927-.927h0a.927.927,0,0,1,.927-.927H672.5a.926.926,0,0,1,.927.927Z" transform="translate(-636.018 -622.406)" fill="#5b5b6d"/>
          <path id="Path_103" data-name="Path 103" d="M673.428,636.909a.927.927,0,0,1-.927.927H636.945a.927.927,0,0,1-.927-.927h0a.927.927,0,0,1,.927-.927H672.5a.926.926,0,0,1,.927.927Z" transform="translate(-636.018 -624.646)" fill="#5b5b6d"/>
          <path id="Path_104" data-name="Path 104" d="M673.428,642.927a.926.926,0,0,1-.927.927H636.945a.926.926,0,0,1-.927-.927h0a.927.927,0,0,1,.927-.927H672.5a.927.927,0,0,1,.927.927Z" transform="translate(-636.018 -626.886)" fill="#5b5b6d"/>
          <path id="Path_105" data-name="Path 105" d="M673.428,648.947a.927.927,0,0,1-.927.927H636.945a.928.928,0,0,1-.927-.927h0a.927.927,0,0,1,.927-.927H672.5a.927.927,0,0,1,.927.927Z" transform="translate(-636.018 -629.126)" fill="#5b5b6d"/>
          <path id="Path_106" data-name="Path 106" d="M673.428,654.966a.926.926,0,0,1-.927.925H636.945a.926.926,0,0,1-.927-.925h0a.927.927,0,0,1,.927-.927H672.5a.926.926,0,0,1,.927.927Z" transform="translate(-636.018 -631.366)" fill="#5b5b6d"/>
          <path id="Path_107" data-name="Path 107" d="M673.428,660.984a.926.926,0,0,1-.927.927H636.945a.927.927,0,0,1-.927-.927h0a.927.927,0,0,1,.927-.927H672.5a.927.927,0,0,1,.927.927Z" transform="translate(-636.018 -633.606)" fill="#5b5b6d"/>
          <path id="Path_108" data-name="Path 108" d="M673.428,667a.927.927,0,0,1-.927.927H636.945a.927.927,0,0,1-.927-.927h0a.927.927,0,0,1,.927-.927H672.5a.926.926,0,0,1,.927.927Z" transform="translate(-636.018 -635.846)" fill="#5b5b6d"/>
          <path id="Path_109" data-name="Path 109" d="M673.428,673.023a.926.926,0,0,1-.927.926H636.945a.926.926,0,0,1-.927-.926h0a.926.926,0,0,1,.927-.927H672.5a.926.926,0,0,1,.927.927Z" transform="translate(-636.018 -638.087)" fill="#5b5b6d"/>
          <path id="Path_110" data-name="Path 110" d="M673.428,679.042a.926.926,0,0,1-.927.925H636.945a.926.926,0,0,1-.927-.925h0a.928.928,0,0,1,.927-.929H672.5a.927.927,0,0,1,.927.929Z" transform="translate(-636.018 -640.326)" fill="#5b5b6d"/>
          <path id="Path_111" data-name="Path 111" d="M673.428,685.06a.926.926,0,0,1-.927.927H636.945a.927.927,0,0,1-.927-.927h0a.926.926,0,0,1,.927-.927H672.5a.926.926,0,0,1,.927.927Z" transform="translate(-636.018 -642.567)" fill="#5b5b6d"/>
          <path id="Path_112" data-name="Path 112" d="M673.428,691.079a.926.926,0,0,1-.927.925H636.945a.926.926,0,0,1-.927-.925h0a.927.927,0,0,1,.927-.927H672.5a.927.927,0,0,1,.927.927Z" transform="translate(-636.018 -644.807)" fill="#5b5b6d"/>
          <path id="Path_113" data-name="Path 113" d="M673.428,697.1a.926.926,0,0,1-.927.927H636.945a.926.926,0,0,1-.927-.927h0a.927.927,0,0,1,.927-.927H672.5a.927.927,0,0,1,.927.927Z" transform="translate(-636.018 -647.047)" fill="#5b5b6d"/>
        </g>
        <g id="Group_212" data-name="Group 212" transform="translate(55.47 34.706)">
          <path id="Path_114" data-name="Path 114" d="M739.292,618.853a.926.926,0,0,1-.927.926H702.808a.926.926,0,0,1-.927-.926h0a.926.926,0,0,1,.927-.927h35.557a.927.927,0,0,1,.927.927Z" transform="translate(-701.881 -617.926)" fill="#5b5b6d"/>
          <path id="Path_115" data-name="Path 115" d="M739.292,624.872a.927.927,0,0,1-.927.926H702.808a.927.927,0,0,1-.927-.926h0a.927.927,0,0,1,.927-.927h35.557a.927.927,0,0,1,.927.927Z" transform="translate(-701.881 -620.166)" fill="#5b5b6d"/>
          <path id="Path_116" data-name="Path 116" d="M739.292,630.89a.927.927,0,0,1-.927.927H702.808a.926.926,0,0,1-.927-.927h0a.927.927,0,0,1,.927-.927h35.557a.927.927,0,0,1,.927.927Z" transform="translate(-701.881 -622.406)" fill="#5b5b6d"/>
          <path id="Path_117" data-name="Path 117" d="M739.292,636.909a.927.927,0,0,1-.927.927H702.808a.927.927,0,0,1-.927-.927h0a.927.927,0,0,1,.927-.927h35.557a.927.927,0,0,1,.927.927Z" transform="translate(-701.881 -624.646)" fill="#5b5b6d"/>
          <path id="Path_118" data-name="Path 118" d="M739.292,642.927a.927.927,0,0,1-.927.927H702.808a.926.926,0,0,1-.927-.927h0a.927.927,0,0,1,.927-.927h35.557a.928.928,0,0,1,.927.927Z" transform="translate(-701.881 -626.886)" fill="#5b5b6d"/>
          <path id="Path_119" data-name="Path 119" d="M739.292,648.947a.928.928,0,0,1-.927.927H702.808a.928.928,0,0,1-.927-.927h0a.927.927,0,0,1,.927-.927h35.557a.927.927,0,0,1,.927.927Z" transform="translate(-701.881 -629.126)" fill="#5b5b6d"/>
          <path id="Path_120" data-name="Path 120" d="M739.292,654.966a.926.926,0,0,1-.927.925H702.808a.926.926,0,0,1-.927-.925h0a.927.927,0,0,1,.927-.927h35.557a.927.927,0,0,1,.927.927Z" transform="translate(-701.881 -631.366)" fill="#5b5b6d"/>
          <path id="Path_121" data-name="Path 121" d="M739.292,660.984a.927.927,0,0,1-.927.927H702.808a.927.927,0,0,1-.927-.927h0a.927.927,0,0,1,.927-.927h35.557a.927.927,0,0,1,.927.927Z" transform="translate(-701.881 -633.606)" fill="#5b5b6d"/>
          <path id="Path_122" data-name="Path 122" d="M739.292,667a.927.927,0,0,1-.927.927H702.808a.927.927,0,0,1-.927-.927h0a.927.927,0,0,1,.927-.927h35.557a.927.927,0,0,1,.927.927Z" transform="translate(-701.881 -635.846)" fill="#5b5b6d"/>
          <path id="Path_123" data-name="Path 123" d="M739.292,673.023a.926.926,0,0,1-.927.926H702.808a.926.926,0,0,1-.927-.926h0a.926.926,0,0,1,.927-.927h35.557a.927.927,0,0,1,.927.927Z" transform="translate(-701.881 -638.087)" fill="#5b5b6d"/>
          <path id="Path_124" data-name="Path 124" d="M739.292,679.042a.926.926,0,0,1-.927.925H702.808a.926.926,0,0,1-.927-.925h0a.928.928,0,0,1,.927-.929h35.557a.928.928,0,0,1,.927.929Z" transform="translate(-701.881 -640.326)" fill="#5b5b6d"/>
          <path id="Path_125" data-name="Path 125" d="M739.292,685.06a.927.927,0,0,1-.927.927H702.808a.927.927,0,0,1-.927-.927h0a.926.926,0,0,1,.927-.927h35.557a.927.927,0,0,1,.927.927Z" transform="translate(-701.881 -642.567)" fill="#5b5b6d"/>
          <path id="Path_126" data-name="Path 126" d="M739.292,691.079a.926.926,0,0,1-.927.925H702.808a.926.926,0,0,1-.927-.925h0a.927.927,0,0,1,.927-.927h35.557a.927.927,0,0,1,.927.927Z" transform="translate(-701.881 -644.807)" fill="#5b5b6d"/>
          <path id="Path_127" data-name="Path 127" d="M739.292,697.1a.927.927,0,0,1-.927.927H702.808a.926.926,0,0,1-.927-.927h0a.927.927,0,0,1,.927-.927h35.557a.927.927,0,0,1,.927.927Z" transform="translate(-701.881 -647.047)" fill="#5b5b6d"/>
        </g>
        <g id="Group_213" data-name="Group 213" transform="translate(96.821 34.706)">
          <path id="Path_128" data-name="Path 128" d="M805.155,618.853a.926.926,0,0,1-.928.926H768.671a.926.926,0,0,1-.927-.926h0a.926.926,0,0,1,.927-.927h35.556a.927.927,0,0,1,.928.927Z" transform="translate(-767.744 -617.926)" fill="#5b5b6d"/>
          <path id="Path_129" data-name="Path 129" d="M805.155,624.872a.927.927,0,0,1-.928.926H768.671a.926.926,0,0,1-.927-.926h0a.926.926,0,0,1,.927-.927h35.556a.927.927,0,0,1,.928.927Z" transform="translate(-767.744 -620.166)" fill="#5b5b6d"/>
          <path id="Path_130" data-name="Path 130" d="M805.155,630.89a.927.927,0,0,1-.928.927H768.671a.926.926,0,0,1-.927-.927h0a.926.926,0,0,1,.927-.927h35.556a.927.927,0,0,1,.928.927Z" transform="translate(-767.744 -622.406)" fill="#5b5b6d"/>
          <path id="Path_131" data-name="Path 131" d="M805.155,636.909a.927.927,0,0,1-.928.927H768.671a.927.927,0,0,1-.927-.927h0a.927.927,0,0,1,.927-.927h35.556a.927.927,0,0,1,.928.927Z" transform="translate(-767.744 -624.646)" fill="#5b5b6d"/>
          <path id="Path_132" data-name="Path 132" d="M805.155,642.927a.927.927,0,0,1-.928.927H768.671a.926.926,0,0,1-.927-.927h0a.927.927,0,0,1,.927-.927h35.556a.928.928,0,0,1,.928.927Z" transform="translate(-767.744 -626.886)" fill="#5b5b6d"/>
          <path id="Path_133" data-name="Path 133" d="M805.155,648.947a.928.928,0,0,1-.928.927H768.671a.927.927,0,0,1-.927-.927h0a.927.927,0,0,1,.927-.927h35.556a.927.927,0,0,1,.928.927Z" transform="translate(-767.744 -629.126)" fill="#5b5b6d"/>
          <path id="Path_134" data-name="Path 134" d="M805.155,654.966a.926.926,0,0,1-.928.925H768.671a.926.926,0,0,1-.927-.925h0a.926.926,0,0,1,.927-.927h35.556a.927.927,0,0,1,.928.927Z" transform="translate(-767.744 -631.366)" fill="#5b5b6d"/>
          <path id="Path_135" data-name="Path 135" d="M805.155,660.984a.927.927,0,0,1-.928.927H768.671a.926.926,0,0,1-.927-.927h0a.927.927,0,0,1,.927-.927h35.556a.927.927,0,0,1,.928.927Z" transform="translate(-767.744 -633.606)" fill="#5b5b6d"/>
          <path id="Path_136" data-name="Path 136" d="M805.155,667a.927.927,0,0,1-.928.927H768.671a.927.927,0,0,1-.927-.927h0a.926.926,0,0,1,.927-.927h35.556a.927.927,0,0,1,.928.927Z" transform="translate(-767.744 -635.846)" fill="#5b5b6d"/>
          <path id="Path_137" data-name="Path 137" d="M805.155,673.023a.926.926,0,0,1-.928.926H768.671a.926.926,0,0,1-.927-.926h0a.926.926,0,0,1,.927-.927h35.556a.927.927,0,0,1,.928.927Z" transform="translate(-767.744 -638.087)" fill="#5b5b6d"/>
          <path id="Path_138" data-name="Path 138" d="M805.155,679.042a.926.926,0,0,1-.928.925H768.671a.926.926,0,0,1-.927-.925h0a.927.927,0,0,1,.927-.929h35.556a.928.928,0,0,1,.928.929Z" transform="translate(-767.744 -640.326)" fill="#5b5b6d"/>
          <path id="Path_139" data-name="Path 139" d="M805.155,685.06a.927.927,0,0,1-.928.927H768.671a.926.926,0,0,1-.927-.927h0a.926.926,0,0,1,.927-.927h35.556a.927.927,0,0,1,.928.927Z" transform="translate(-767.744 -642.567)" fill="#5b5b6d"/>
          <path id="Path_140" data-name="Path 140" d="M805.155,691.079a.926.926,0,0,1-.928.925H768.671a.926.926,0,0,1-.927-.925h0a.927.927,0,0,1,.927-.927h35.556a.927.927,0,0,1,.928.927Z" transform="translate(-767.744 -644.807)" fill="#5b5b6d"/>
          <path id="Path_141" data-name="Path 141" d="M805.155,697.1a.927.927,0,0,1-.928.927H768.671a.926.926,0,0,1-.927-.927h0a.927.927,0,0,1,.927-.927h35.556a.928.928,0,0,1,.928.927Z" transform="translate(-767.744 -647.047)" fill="#5b5b6d"/>
        </g>
        <g id="Group_214" data-name="Group 214" transform="translate(138.171 34.706)">
          <path id="Path_142" data-name="Path 142" d="M871.017,618.853a.926.926,0,0,1-.927.926H834.534a.927.927,0,0,1-.927-.926h0a.927.927,0,0,1,.927-.927H870.09a.926.926,0,0,1,.927.927Z" transform="translate(-833.607 -617.926)" fill="#5b5b6d"/>
          <path id="Path_143" data-name="Path 143" d="M871.017,624.872a.926.926,0,0,1-.927.926H834.534a.927.927,0,0,1-.927-.926h0a.927.927,0,0,1,.927-.927H870.09a.926.926,0,0,1,.927.927Z" transform="translate(-833.607 -620.166)" fill="#5b5b6d"/>
          <path id="Path_144" data-name="Path 144" d="M871.017,630.89a.926.926,0,0,1-.927.927H834.534a.927.927,0,0,1-.927-.927h0a.927.927,0,0,1,.927-.927H870.09a.926.926,0,0,1,.927.927Z" transform="translate(-833.607 -622.406)" fill="#5b5b6d"/>
          <path id="Path_145" data-name="Path 145" d="M871.017,636.909a.927.927,0,0,1-.927.927H834.534a.928.928,0,0,1-.927-.927h0a.927.927,0,0,1,.927-.927H870.09a.926.926,0,0,1,.927.927Z" transform="translate(-833.607 -624.646)" fill="#5b5b6d"/>
          <path id="Path_146" data-name="Path 146" d="M871.017,642.927a.926.926,0,0,1-.927.927H834.534a.927.927,0,0,1-.927-.927h0a.928.928,0,0,1,.927-.927H870.09a.927.927,0,0,1,.927.927Z" transform="translate(-833.607 -626.886)" fill="#5b5b6d"/>
          <path id="Path_147" data-name="Path 147" d="M871.017,648.947a.927.927,0,0,1-.927.927H834.534a.928.928,0,0,1-.927-.927h0a.928.928,0,0,1,.927-.927H870.09a.927.927,0,0,1,.927.927Z" transform="translate(-833.607 -629.126)" fill="#5b5b6d"/>
          <path id="Path_148" data-name="Path 148" d="M871.017,654.966a.926.926,0,0,1-.927.925H834.534a.926.926,0,0,1-.927-.925h0a.927.927,0,0,1,.927-.927H870.09a.926.926,0,0,1,.927.927Z" transform="translate(-833.607 -631.366)" fill="#5b5b6d"/>
          <path id="Path_149" data-name="Path 149" d="M871.017,660.984a.926.926,0,0,1-.927.927H834.534a.927.927,0,0,1-.927-.927h0a.928.928,0,0,1,.927-.927H870.09a.927.927,0,0,1,.927.927Z" transform="translate(-833.607 -633.606)" fill="#5b5b6d"/>
          <path id="Path_150" data-name="Path 150" d="M871.017,667a.927.927,0,0,1-.927.927H834.534a.928.928,0,0,1-.927-.927h0a.927.927,0,0,1,.927-.927H870.09a.926.926,0,0,1,.927.927Z" transform="translate(-833.607 -635.846)" fill="#5b5b6d"/>
          <path id="Path_151" data-name="Path 151" d="M871.017,673.023a.926.926,0,0,1-.927.926H834.534a.927.927,0,0,1-.927-.926h0a.927.927,0,0,1,.927-.927H870.09a.926.926,0,0,1,.927.927Z" transform="translate(-833.607 -638.087)" fill="#5b5b6d"/>
          <path id="Path_152" data-name="Path 152" d="M871.017,679.042a.926.926,0,0,1-.927.925H834.534a.926.926,0,0,1-.927-.925h0a.928.928,0,0,1,.927-.929H870.09a.927.927,0,0,1,.927.929Z" transform="translate(-833.607 -640.326)" fill="#5b5b6d"/>
          <path id="Path_153" data-name="Path 153" d="M871.017,685.06a.926.926,0,0,1-.927.927H834.534a.927.927,0,0,1-.927-.927h0a.927.927,0,0,1,.927-.927H870.09a.926.926,0,0,1,.927.927Z" transform="translate(-833.607 -642.567)" fill="#5b5b6d"/>
          <path id="Path_154" data-name="Path 154" d="M871.017,691.079a.926.926,0,0,1-.927.925H834.534a.927.927,0,0,1-.927-.925h0a.927.927,0,0,1,.927-.927H870.09a.927.927,0,0,1,.927.927Z" transform="translate(-833.607 -644.807)" fill="#5b5b6d"/>
          <path id="Path_155" data-name="Path 155" d="M871.017,697.1a.926.926,0,0,1-.927.927H834.534a.927.927,0,0,1-.927-.927h0a.928.928,0,0,1,.927-.927H870.09a.927.927,0,0,1,.927.927Z" transform="translate(-833.607 -647.047)" fill="#5b5b6d"/>
        </g>
        <path id="Path_156" data-name="Path 156" d="M665.92,606.238a.988.988,0,1,1-.988-.988A.988.988,0,0,1,665.92,606.238Z" transform="translate(-632.291 -578.503)" fill="#5b5b6d"/>
        <path id="Path_157" data-name="Path 157" d="M732.078,606.238a.988.988,0,1,1-.989-.988A.989.989,0,0,1,732.078,606.238Z" transform="translate(-656.914 -578.503)" fill="#5b5b6d"/>
        <path id="Path_158" data-name="Path 158" d="M798.235,606.238a.988.988,0,1,1-.989-.988A.989.989,0,0,1,798.235,606.238Z" transform="translate(-681.536 -578.503)" fill="#5b5b6d"/>
        <path id="Path_159" data-name="Path 159" d="M864.392,606.238a.988.988,0,1,1-.988-.988A.988.988,0,0,1,864.392,606.238Z" transform="translate(-706.158 -578.503)" fill="#5b5b6d"/>
      </g>
      <g id="Group_280" data-name="Group 280" transform="translate(511.013 253.602)">
        <g id="Group_219" data-name="Group 219" transform="translate(0 0)">
          <g id="Group_216" data-name="Group 216">
            <path id="Path_160" data-name="Path 160" d="M1106.972,647.51a2.16,2.16,0,0,1-2.185,2.133H973.222a2.159,2.159,0,0,1-2.185-2.133V561.131A2.158,2.158,0,0,1,973.222,559h131.565a2.159,2.159,0,0,1,2.185,2.131Z" transform="translate(-971.037 -559)" fill="#fff"/>
          </g>
          <g id="Group_217" data-name="Group 217" transform="translate(21.764 90.643)">
            <rect id="Rectangle_156" data-name="Rectangle 156" width="10.33" height="4.744" fill="#454554"/>
          </g>
          <g id="Group_218" data-name="Group 218" transform="translate(104.589 90.643)">
            <rect id="Rectangle_157" data-name="Rectangle 157" width="10.329" height="4.744" fill="#454554"/>
          </g>
        </g>
        <rect id="Rectangle_158" data-name="Rectangle 158" width="82.897" height="81.334" rx="7.137" transform="translate(4.125 4.667)" fill="#d2e5e4"/>
        <path id="Path_161" data-name="Path 161" d="M1000.071,641.083l-19.452-33.692,19.452-33.69h38.9l19.451,33.69-19.451,33.692Z" transform="translate(-974.603 -564.471)" fill="#dff2f4"/>
        <path id="Path_162" data-name="Path 162" d="M1003.1,640.1l-18.063-31.287,18.063-31.286h36.127l18.063,31.286L1039.232,640.1Z" transform="translate(-976.249 -565.897)" fill="#454554"/>
        <g id="Group_277" data-name="Group 277" transform="translate(8.793 11.634)">
          <g id="Group_276" data-name="Group 276" clip-path="url(#clip-path)">
            <g id="Group_275" data-name="Group 275" transform="translate(-3.425 -6.18)">
              <g id="Group_220" data-name="Group 220" transform="translate(33.023 33.024)">
                <path id="Path_163" data-name="Path 163" d="M1045.242,626.818a6.528,6.528,0,1,1-6.527-6.529A6.527,6.527,0,0,1,1045.242,626.818Z" transform="translate(-1032.186 -620.289)" fill="#dff2f4"/>
              </g>
              <g id="Group_223" data-name="Group 223">
                <g id="Group_221" data-name="Group 221" transform="translate(38.528)">
                  <rect id="Rectangle_159" data-name="Rectangle 159" width="2.047" height="79.103" fill="#dff2f4"/>
                </g>
                <g id="Group_222" data-name="Group 222" transform="translate(0 38.53)">
                  <rect id="Rectangle_160" data-name="Rectangle 160" width="79.102" height="2.045" fill="#dff2f4"/>
                </g>
              </g>
              <g id="Group_226" data-name="Group 226" transform="translate(4.618 4.609)">
                <g id="Group_224" data-name="Group 224" transform="translate(0 14.586)">
                  <rect id="Rectangle_161" data-name="Rectangle 161" width="79.103" height="2.047" transform="translate(0 38.932) rotate(-29.483)" fill="#dff2f4"/>
                </g>
                <g id="Group_225" data-name="Group 225" transform="translate(14.594 0)">
                  <rect id="Rectangle_162" data-name="Rectangle 162" width="2.047" height="79.103" transform="translate(0 1.007) rotate(-29.454)" fill="#dff2f4"/>
                </g>
              </g>
              <g id="Group_229" data-name="Group 229" transform="translate(4.365 4.367)">
                <g id="Group_227" data-name="Group 227" transform="translate(0 15.299)">
                  <rect id="Rectangle_163" data-name="Rectangle 163" width="2.046" height="79.102" transform="matrix(0.48, -0.877, 0.877, 0.48, 0, 1.795)" fill="#dff2f4"/>
                </g>
                <g id="Group_228" data-name="Group 228" transform="translate(15.3)">
                  <rect id="Rectangle_164" data-name="Rectangle 164" width="79.102" height="2.046" transform="translate(0 69.388) rotate(-61.307)" fill="#dff2f4"/>
                </g>
              </g>
              <g id="Group_232" data-name="Group 232" transform="translate(0.257 0.259)">
                <g id="Group_230" data-name="Group 230" transform="translate(34.361 0)">
                  <rect id="Rectangle_165" data-name="Rectangle 165" width="79.103" height="0.41" transform="translate(0 78.535) rotate(-83.133)" fill="#dff2f4"/>
                </g>
                <g id="Group_231" data-name="Group 231" transform="translate(0 34.376)">
                  <rect id="Rectangle_166" data-name="Rectangle 166" width="0.41" height="79.102" transform="matrix(0.119, -0.993, 0.993, 0.119, 0, 0.407)" fill="#dff2f4"/>
                </g>
              </g>
              <g id="Group_235" data-name="Group 235" transform="translate(2.971 2.963)">
                <g id="Group_233" data-name="Group 233" transform="translate(0 21.169)">
                  <rect id="Rectangle_167" data-name="Rectangle 167" width="79.103" height="0.409" transform="translate(0 30.463) rotate(-22.65)" fill="#dff2f4"/>
                </g>
                <g id="Group_234" data-name="Group 234" transform="translate(21.184)">
                  <path id="Path_164" data-name="Path 164" d="M1048.475,645.586l-30.412-73.022.378-.157,30.412,73.022Z" transform="translate(-1018.063 -572.406)" fill="#dff2f4"/>
                </g>
              </g>
              <g id="Group_238" data-name="Group 238" transform="translate(7.247 7.248)">
                <g id="Group_236" data-name="Group 236" transform="translate(0 9.15)">
                  <rect id="Rectangle_168" data-name="Rectangle 168" width="0.409" height="79.103" transform="translate(0 0.333) rotate(-54.464)" fill="#dff2f4"/>
                </g>
                <g id="Group_237" data-name="Group 237" transform="translate(9.15)">
                  <path id="Path_165" data-name="Path 165" d="M1006.037,643.839l-.333-.237,45.974-64.37.333.237Z" transform="translate(-1005.704 -579.232)" fill="#dff2f4"/>
                </g>
              </g>
              <g id="Group_241" data-name="Group 241" transform="translate(0.825 0.825)">
                <g id="Group_239" data-name="Group 239" transform="translate(30.289)">
                  <path id="Path_166" data-name="Path 166" d="M1029.546,646.455l-.4-.085L1045.62,569l.4.086Z" transform="translate(-1029.146 -569.002)" fill="#dff2f4"/>
                </g>
                <g id="Group_240" data-name="Group 240" transform="translate(0 30.289)">
                  <path id="Path_167" data-name="Path 167" d="M1058.268,634.121,980.9,617.647l.086-.4,77.368,16.474Z" transform="translate(-980.9 -617.246)" fill="#dff2f4"/>
                </g>
              </g>
              <g id="Group_244" data-name="Group 244" transform="translate(1.756 1.756)">
                <g id="Group_242" data-name="Group 242" transform="translate(0 25.751)">
                  <path id="Path_168" data-name="Path 168" d="M982.506,635.59l-.122-.391,75.469-23.7.122.391Z" transform="translate(-982.384 -611.5)" fill="#dff2f4"/>
                </g>
                <g id="Group_243" data-name="Group 243" transform="translate(25.749 0)">
                  <rect id="Rectangle_169" data-name="Rectangle 169" width="0.41" height="79.103" transform="matrix(0.954, -0.3, 0.3, 0.954, 0, 0.123)" fill="#dff2f4"/>
                </g>
              </g>
              <g id="Group_247" data-name="Group 247" transform="translate(9.438 9.483)">
                <g id="Group_245" data-name="Group 245" transform="translate(0 4.116)">
                  <rect id="Rectangle_170" data-name="Rectangle 170" width="0.41" height="79.103" transform="translate(0 0.31) rotate(-49.288)" fill="#dff2f4"/>
                </g>
                <g id="Group_246" data-name="Group 246" transform="translate(4.109 0)">
                  <rect id="Rectangle_171" data-name="Rectangle 171" width="79.103" height="0.409" transform="translate(0 59.87) rotate(-49.189)" fill="#dff2f4"/>
                </g>
              </g>
              <g id="Group_250" data-name="Group 250" transform="translate(1.653 1.653)">
                <g id="Group_248" data-name="Group 248" transform="translate(26.189)">
                  <path id="Path_169" data-name="Path 169" d="M1024.325,646.118l-.392-.12,23.027-75.677.392.12Z" transform="translate(-1023.934 -570.32)" fill="#dff2f4"/>
                </g>
                <g id="Group_249" data-name="Group 249" transform="translate(0 26.19)">
                  <path id="Path_170" data-name="Path 170" d="M1057.9,635.453,982.22,612.426l.12-.391,75.677,23.027Z" transform="translate(-982.22 -612.035)" fill="#dff2f4"/>
                </g>
              </g>
              <g id="Group_253" data-name="Group 253" transform="translate(0.897 0.898)">
                <g id="Group_251" data-name="Group 251" transform="translate(0 29.873)">
                  <path id="Path_171" data-name="Path 171" d="M981.105,634.261l-.09-.4,77.219-17.162.089.4Z" transform="translate(-981.016 -616.699)" fill="#dff2f4"/>
                </g>
                <g id="Group_252" data-name="Group 252" transform="translate(29.873)">
                  <path id="Path_172" data-name="Path 172" d="M1045.76,646.427l-17.162-77.22.4-.09,17.162,77.219Z" transform="translate(-1028.598 -569.117)" fill="#dff2f4"/>
                </g>
              </g>
              <g id="Group_256" data-name="Group 256" transform="translate(11.116 11.143)">
                <g id="Group_254" data-name="Group 254" transform="translate(0.624)">
                  <path id="Path_173" data-name="Path 173" d="M1053.617,642.255l-55.331-56.534.292-.286,55.33,56.532Z" transform="translate(-998.286 -585.435)" fill="#dff2f4"/>
                </g>
                <g id="Group_255" data-name="Group 255" transform="translate(0 0.625)">
                  <rect id="Rectangle_172" data-name="Rectangle 172" width="79.103" height="0.409" transform="translate(0 55.276) rotate(-44.329)" fill="#dff2f4"/>
                </g>
              </g>
              <g id="Group_259" data-name="Group 259" transform="translate(2.836 2.85)">
                <g id="Group_257" data-name="Group 257" transform="translate(21.593 0)">
                  <rect id="Rectangle_173" data-name="Rectangle 173" width="79.103" height="0.409" transform="translate(0 73.248) rotate(-67.818)" fill="#dff2f4"/>
                </g>
                <g id="Group_258" data-name="Group 258" transform="translate(0 21.615)">
                  <rect id="Rectangle_174" data-name="Rectangle 174" width="0.41" height="79.102" transform="translate(0 0.38) rotate(-67.872)" fill="#dff2f4"/>
                </g>
              </g>
              <g id="Group_262" data-name="Group 262" transform="translate(0.298 0.298)">
                <g id="Group_260" data-name="Group 260" transform="translate(0 34)">
                  <rect id="Rectangle_175" data-name="Rectangle 175" width="79.102" height="0.409" transform="translate(0 10.104) rotate(-7.338)" fill="#dff2f4"/>
                </g>
                <g id="Group_261" data-name="Group 261" transform="translate(34.007)">
                  <path id="Path_174" data-name="Path 174" d="M1044.314,646.671l-10.087-78.457.406-.051,10.087,78.457Z" transform="translate(-1034.228 -568.162)" fill="#dff2f4"/>
                </g>
              </g>
              <g id="Group_265" data-name="Group 265" transform="translate(8.757 8.763)">
                <g id="Group_263" data-name="Group 263" transform="translate(5.648 0)">
                  <rect id="Rectangle_176" data-name="Rectangle 176" width="0.41" height="79.103" transform="matrix(0.775, -0.632, 0.632, 0.775, 0, 0.259)" fill="#dff2f4"/>
                </g>
                <g id="Group_264" data-name="Group 264" transform="translate(0 5.649)">
                  <rect id="Rectangle_177" data-name="Rectangle 177" width="79.103" height="0.41" transform="translate(0 49.961) rotate(-39.168)" fill="#dff2f4"/>
                </g>
              </g>
              <g id="Group_268" data-name="Group 268" transform="translate(4.208 4.208)">
                <g id="Group_266" data-name="Group 266" transform="translate(17.225)">
                  <path id="Path_175" data-name="Path 175" d="M1014.089,645.077l-.365-.184,35.873-70.5.365.186Z" transform="translate(-1013.725 -574.391)" fill="#dff2f4"/>
                </g>
                <g id="Group_267" data-name="Group 267" transform="translate(0 17.225)">
                  <rect id="Rectangle_178" data-name="Rectangle 178" width="0.41" height="79.102" transform="translate(0 0.365) rotate(-63.032)" fill="#dff2f4"/>
                </g>
              </g>
              <g id="Group_271" data-name="Group 271" transform="translate(0.026 0.029)">
                <g id="Group_269" data-name="Group 269" transform="translate(0 37.658)">
                  <rect id="Rectangle_179" data-name="Rectangle 179" width="79.102" height="0.41" transform="translate(0 3.32) rotate(-2.405)" fill="#dff2f4"/>
                </g>
                <g id="Group_270" data-name="Group 270" transform="translate(37.605)">
                  <path id="Path_176" data-name="Path 176" d="M1042.957,646.779l-3.43-79.026.409-.018,3.43,79.027Z" transform="translate(-1039.526 -567.734)" fill="#dff2f4"/>
                </g>
              </g>
              <g id="Group_274" data-name="Group 274" transform="translate(6.815 6.779)">
                <g id="Group_272" data-name="Group 272" transform="translate(10.256)">
                  <path id="Path_177" data-name="Path 177" d="M1051.4,644.032l-44.623-65.316.338-.232,44.622,65.316Z" transform="translate(-1006.777 -578.484)" fill="#dff2f4"/>
                </g>
                <g id="Group_273" data-name="Group 273" transform="translate(0 10.241)">
                  <rect id="Rectangle_180" data-name="Rectangle 180" width="79.101" height="0.409" transform="translate(0 44.728) rotate(-34.434)" fill="#dff2f4"/>
                </g>
              </g>
            </g>
          </g>
        </g>
        <path id="Path_179" data-name="Path 179" d="M1033.166,630.4l-4.309-7.464,4.309-7.463h8.618l4.31,7.463-4.31,7.464Z" transform="translate(-992.556 -580.019)" fill="#dff2f4"/>
        <path id="Path_180" data-name="Path 180" d="M1104.825,575.451a.675.675,0,0,1-.674.674h0a.675.675,0,0,1-.676-.674h0a.675.675,0,0,1,.676-.676h0a.675.675,0,0,1,.674.676Z" transform="translate(-1020.328 -564.871)" fill="#454554"/>
        <path id="Path_181" data-name="Path 181" d="M1104.825,603.166a.674.674,0,0,1-.674.675h0a.675.675,0,0,1-.676-.675h0a.675.675,0,0,1,.676-.676h0a.675.675,0,0,1,.674.676Z" transform="translate(-1020.328 -575.186)" fill="#454554"/>
        <path id="Path_182" data-name="Path 182" d="M1104.825,630.883a.674.674,0,0,1-.674.674h0a.675.675,0,0,1-.676-.674h0a.675.675,0,0,1,.676-.676h0a.675.675,0,0,1,.674.676Z" transform="translate(-1020.328 -585.502)" fill="#454554"/>
        <path id="Path_183" data-name="Path 183" d="M1104.825,658.6a.674.674,0,0,1-.674.674h0a.674.674,0,0,1-.676-.674h0a.675.675,0,0,1,.676-.676h0a.675.675,0,0,1,.674.676Z" transform="translate(-1020.328 -595.817)" fill="#454554"/>
        <path id="Path_184" data-name="Path 184" d="M1104.825,686.315a.674.674,0,0,1-.674.674h0a.675.675,0,0,1-.676-.674h0a.674.674,0,0,1,.676-.676h0a.674.674,0,0,1,.674.676Z" transform="translate(-1020.328 -606.132)" fill="#454554"/>
        <g id="Group_279" data-name="Group 279" transform="translate(0 0)" opacity="0.4" style="mix-blend-mode: multiply;isolation: isolate">
          <g id="Group_278" data-name="Group 278">
            <path id="Path_185" data-name="Path 185" d="M1104.787,559h-7.172v81.982a2.158,2.158,0,0,1-2.184,2.132H971.037v4.4a2.159,2.159,0,0,0,2.185,2.133h131.565a2.16,2.16,0,0,0,2.185-2.133V561.131A2.159,2.159,0,0,0,1104.787,559Z" transform="translate(-971.037 -559)" fill="#d2e5e4"/>
          </g>
        </g>
      </g>
      <path id="Path_186" data-name="Path 186" d="M223.534,450.913H372.5l49.585,29.93H259.962Z" transform="translate(-181.821 -265.171)" fill="#9397ca" opacity="0.4" style="mix-blend-mode: multiply;isolation: isolate"/>
      <path id="Path_187" data-name="Path 187" d="M628.481,469.635H753.75L800.4,499.566H664.909Z" transform="translate(-332.533 -272.139)" fill="#9397ca" opacity="0.4" style="mix-blend-mode: multiply;isolation: isolate"/>
      <path id="Path_188" data-name="Path 188" d="M997.756,475.339h102.858L1150.2,505.27H1034.184Z" transform="translate(-469.968 -274.262)" fill="#9397ca" opacity="0.4" style="mix-blend-mode: multiply;isolation: isolate"/>
      <g id="Group_284" data-name="Group 284" transform="translate(0 258.937)">
        <g id="Group_283" data-name="Group 283" transform="translate(0 0)">
          <path id="Path_189" data-name="Path 189" d="M284.9,592.235l123.3-9.846-7.663-11.051s-2.16-3.84-16.48-3.84H182.82c-16.32,0-16.48,3.84-16.48,3.84l-8.4,11.408,124.035,9.49v.225l1.463-.113,1.463.113Z" transform="translate(-157.409 -567.498)" fill="#efeff1"/>
          <path id="Rectangle_181" data-name="Rectangle 181" d="M7.644,0H243.884a7.646,7.646,0,0,1,7.646,7.646v47.11a7.647,7.647,0,0,1-7.647,7.647H7.646A7.646,7.646,0,0,1,0,54.757V7.644A7.644,7.644,0,0,1,7.644,0Z" transform="translate(0 12.641)" fill="#fff"/>
          <path id="Path_190" data-name="Path 190" d="M403.822,667.337a4.8,4.8,0,0,0,4.8-4.8V650.316c-105.98-32.976-225.889-6.428-251.53-.036v12.258a4.8,4.8,0,0,0,4.8,4.8Z" transform="translate(-157.093 -592.294)" fill="#d2e5e4"/>
          <g id="Group_281" data-name="Group 281" transform="translate(8.931 58.243)">
            <path id="Path_191" data-name="Path 191" d="M408.447,661.31c0,.574-.645,1.041-1.44,1.041H172.758c-.795,0-1.44-.467-1.44-1.041h0c0-.576.645-1.042,1.44-1.042h234.25c.8,0,1.44.466,1.44,1.042Z" transform="translate(-171.318 -660.268)" fill="#5b5b6d"/>
            <path id="Path_192" data-name="Path 192" d="M408.447,667.391c0,.575-.645,1.042-1.44,1.042H172.758c-.795,0-1.44-.467-1.44-1.042h0c0-.574.645-1.041,1.44-1.041h234.25c.8,0,1.44.467,1.44,1.041Z" transform="translate(-171.318 -662.532)" fill="#5b5b6d"/>
            <path id="Path_193" data-name="Path 193" d="M408.447,673.473c0,.576-.645,1.042-1.44,1.042H172.758c-.795,0-1.44-.466-1.44-1.042h0c0-.575.645-1.041,1.44-1.041h234.25c.8,0,1.44.466,1.44,1.041Z" transform="translate(-171.318 -664.795)" fill="#5b5b6d"/>
          </g>
          <g id="Group_282" data-name="Group 282" transform="translate(12.291 10.71)">
            <path id="Path_194" data-name="Path 194" d="M219.869,585.534a.977.977,0,0,1-.978.978H177.648a.977.977,0,0,1-.978-.978h0a.977.977,0,0,1,.978-.977h41.244a.977.977,0,0,1,.978.977Z" transform="translate(-176.67 -584.557)" fill="#5b5b6d"/>
            <path id="Path_195" data-name="Path 195" d="M293.408,585.534a.977.977,0,0,1-.978.978H251.187a.977.977,0,0,1-.977-.978h0a.977.977,0,0,1,.977-.977h41.244a.977.977,0,0,1,.978.977Z" transform="translate(-204.04 -584.557)" fill="#5b5b6d"/>
            <path id="Path_196" data-name="Path 196" d="M366.948,585.534a.978.978,0,0,1-.978.978H324.726a.978.978,0,0,1-.978-.978h0a.977.977,0,0,1,.978-.977H365.97a.978.978,0,0,1,.978.977Z" transform="translate(-231.409 -584.557)" fill="#5b5b6d"/>
            <path id="Path_197" data-name="Path 197" d="M440.487,585.534a.977.977,0,0,1-.978.978H398.266a.977.977,0,0,1-.978-.978h0a.977.977,0,0,1,.978-.977H439.51a.977.977,0,0,1,.978.977Z" transform="translate(-258.779 -584.557)" fill="#5b5b6d"/>
            <path id="Path_198" data-name="Path 198" d="M514.026,585.534a.977.977,0,0,1-.978.978H471.8a.977.977,0,0,1-.978-.978h0a.977.977,0,0,1,.978-.977h41.244a.977.977,0,0,1,.978.977Z" transform="translate(-286.148 -584.557)" fill="#5b5b6d"/>
          </g>
          <path id="Path_199" data-name="Path 199" d="M402.759,580.332a.435.435,0,0,1-.48.368H177.15a.435.435,0,0,1-.48-.368h0a.435.435,0,0,1,.48-.367H402.279a.435.435,0,0,1,.48.367Z" transform="translate(-164.379 -572.138)" fill="#5b5b6d"/>
          <path id="Path_200" data-name="Path 200" d="M402.473,577.4a.43.43,0,0,1-.474.367H179.524a.43.43,0,0,1-.475-.367h0a.431.431,0,0,1,.475-.367H402a.431.431,0,0,1,.474.367Z" transform="translate(-165.264 -571.045)" fill="#5b5b6d"/>
          <path id="Path_201" data-name="Path 201" d="M402.5,574.461a.43.43,0,0,1-.472.367H180.921a.429.429,0,0,1-.471-.367h0a.428.428,0,0,1,.471-.367h221.11a.429.429,0,0,1,.472.367Z" transform="translate(-165.786 -569.953)" fill="#5b5b6d"/>
          <path id="Path_202" data-name="Path 202" d="M402.49,571.524a.425.425,0,0,1-.468.365H182.276a.426.426,0,0,1-.468-.365h0a.427.427,0,0,1,.468-.368H402.022a.427.427,0,0,1,.468.368Z" transform="translate(-166.291 -568.859)" fill="#5b5b6d"/>
          <rect id="Rectangle_182" data-name="Rectangle 182" width="0.701" height="8.848" transform="translate(41.013 1.063)" fill="#efeff1"/>
          <rect id="Rectangle_183" data-name="Rectangle 183" width="0.701" height="8.848" transform="translate(66.68 1.063)" fill="#efeff1"/>
          <rect id="Rectangle_184" data-name="Rectangle 184" width="0.701" height="8.848" transform="translate(92.348 1.063)" fill="#efeff1"/>
          <rect id="Rectangle_185" data-name="Rectangle 185" width="0.701" height="8.848" transform="translate(118.016 1.063)" fill="#efeff1"/>
          <rect id="Rectangle_186" data-name="Rectangle 186" width="0.701" height="8.848" transform="translate(143.683 1.063)" fill="#efeff1"/>
          <rect id="Rectangle_187" data-name="Rectangle 187" width="0.7" height="8.848" transform="translate(169.351 1.063)" fill="#efeff1"/>
          <rect id="Rectangle_188" data-name="Rectangle 188" width="0.701" height="8.848" transform="translate(195.019 1.063)" fill="#efeff1"/>
          <rect id="Rectangle_189" data-name="Rectangle 189" width="0.701" height="8.848" transform="translate(220.687 1.063)" fill="#efeff1"/>
        </g>
      </g>
    </g>
  </g>
</svg>
